<svg viewBox="0 0 330 200" xmlns="http://www.w3.org/2000/svg"><g><g><g><g><g><line x1="60" y1="177" x2="55" y2="177" style="visibility: inherit;" fill="rgb(0, 0, 0)" stroke="rgb(204, 204, 204)" stroke-width="1px"></line><line x1="60" y1="157.33333333333331" x2="55" y2="157.33333333333331" style="visibility: inherit;" fill="rgb(0, 0, 0)" stroke="rgb(204, 204, 204)" stroke-width="1px"></line><line x1="60" y1="137.66666666666666" x2="55" y2="137.66666666666666" style="visibility: inherit;" fill="rgb(0, 0, 0)" stroke="rgb(204, 204, 204)" stroke-width="1px"></line><line x1="60" y1="118.00000000000001" x2="55" y2="118.00000000000001" style="visibility: inherit;" fill="rgb(0, 0, 0)" stroke="rgb(204, 204, 204)" stroke-width="1px"></line><line x1="60" y1="98.33333333333334" x2="55" y2="98.33333333333334" style="visibility: inherit;" fill="rgb(0, 0, 0)" stroke="rgb(204, 204, 204)" stroke-width="1px"></line><line x1="60" y1="78.66666666666666" x2="55" y2="78.66666666666666" style="visibility: inherit;" fill="rgb(0, 0, 0)" stroke="rgb(204, 204, 204)" stroke-width="1px"></line><line x1="60" y1="59.00000000000001" x2="55" y2="59.00000000000001" style="visibility: inherit;" fill="rgb(0, 0, 0)" stroke="rgb(204, 204, 204)" stroke-width="1px"></line><line x1="60" y1="39.33333333333333" x2="55" y2="39.33333333333333" style="visibility: inherit;" fill="rgb(0, 0, 0)" stroke="rgb(204, 204, 204)" stroke-width="1px"></line><line x1="60" y1="19.666666666666675" x2="55" y2="19.666666666666675" style="visibility: inherit;" fill="rgb(0, 0, 0)" stroke="rgb(204, 204, 204)" stroke-width="1px"></line><line x1="60" y1="0" x2="55" y2="0" style="visibility: inherit;" fill="rgb(0, 0, 0)" stroke="rgb(204, 204, 204)" stroke-width="1px"></line></g><g transform="translate(50, 0)"><text x="0" y="177" dx="0em" dy="0.3em" style="text-anchor: end; visibility: hidden; font-family: Roboto, sans-serif; font-size: 12px; font-weight: 200;" fill="rgb(33, 33, 33)" stroke="none" stroke-width="1px">0.574</text><text x="0" y="157.33333333333331" dx="0em" dy="0.3em" style="text-anchor: end; visibility: inherit; font-family: Roboto, sans-serif; font-size: 12px; font-weight: 200;" fill="rgb(33, 33, 33)" stroke="none" stroke-width="1px">0.576</text><text x="0" y="137.66666666666666" dx="0em" dy="0.3em" style="text-anchor: end; visibility: hidden; font-family: Roboto, sans-serif; font-size: 12px; font-weight: 200;" fill="rgb(33, 33, 33)" stroke="none" stroke-width="1px">0.578</text><text x="0" y="118.00000000000001" dx="0em" dy="0.3em" style="text-anchor: end; visibility: inherit; font-family: Roboto, sans-serif; font-size: 12px; font-weight: 200;" fill="rgb(33, 33, 33)" stroke="none" stroke-width="1px">0.58</text><text x="0" y="98.33333333333334" dx="0em" dy="0.3em" style="text-anchor: end; visibility: hidden; font-family: Roboto, sans-serif; font-size: 12px; font-weight: 200;" fill="rgb(33, 33, 33)" stroke="none" stroke-width="1px">0.582</text><text x="0" y="78.66666666666666" dx="0em" dy="0.3em" style="text-anchor: end; visibility: inherit; font-family: Roboto, sans-serif; font-size: 12px; font-weight: 200;" fill="rgb(33, 33, 33)" stroke="none" stroke-width="1px">0.584</text><text x="0" y="59.00000000000001" dx="0em" dy="0.3em" style="text-anchor: end; visibility: hidden; font-family: Roboto, sans-serif; font-size: 12px; font-weight: 200;" fill="rgb(33, 33, 33)" stroke="none" stroke-width="1px">0.586</text><text x="0" y="39.33333333333333" dx="0em" dy="0.3em" style="text-anchor: end; visibility: inherit; font-family: Roboto, sans-serif; font-size: 12px; font-weight: 200;" fill="rgb(33, 33, 33)" stroke="none" stroke-width="1px">0.588</text><text x="0" y="19.666666666666675" dx="0em" dy="0.3em" style="text-anchor: end; visibility: hidden; font-family: Roboto, sans-serif; font-size: 12px; font-weight: 200;" fill="rgb(33, 33, 33)" stroke="none" stroke-width="1px">0.59</text><text x="0" y="0" dx="0em" dy="0.3em" style="text-anchor: end; visibility: hidden; font-family: Roboto, sans-serif; font-size: 12px; font-weight: 200;" fill="rgb(33, 33, 33)" stroke="none" stroke-width="1px">0.592</text></g><line x1="60" y1="0" x2="60" y2="177" fill="rgb(0, 0, 0)" stroke="rgb(204, 204, 204)" stroke-width="1px"></line></g></g><g transform="translate(60, 0)" clip-path="url(#clip_0)"><clipPath id="clip_0"><rect width="270" height="177"></rect></clipPath><g><g><g><line x1="0" y1="0" x2="0" y2="177" fill="rgb(0, 0, 0)" stroke="rgb(66, 66, 66)" stroke-width="1px" opacity="0.25"></line><line x1="19.285714285714285" y1="0" x2="19.285714285714285" y2="177" fill="rgb(0, 0, 0)" stroke="rgb(66, 66, 66)" stroke-width="1px" opacity="0.25"></line><line x1="38.57142857142857" y1="0" x2="38.57142857142857" y2="177" fill="rgb(0, 0, 0)" stroke="rgb(66, 66, 66)" stroke-width="1px" opacity="0.25"></line><line x1="57.857142857142854" y1="0" x2="57.857142857142854" y2="177" fill="rgb(0, 0, 0)" stroke="rgb(66, 66, 66)" stroke-width="1px" opacity="0.25"></line><line x1="77.14285714285714" y1="0" x2="77.14285714285714" y2="177" fill="rgb(0, 0, 0)" stroke="rgb(66, 66, 66)" stroke-width="1px" opacity="0.25"></line><line x1="96.42857142857143" y1="0" x2="96.42857142857143" y2="177" fill="rgb(0, 0, 0)" stroke="rgb(66, 66, 66)" stroke-width="1px" opacity="0.25"></line><line x1="115.71428571428571" y1="0" x2="115.71428571428571" y2="177" fill="rgb(0, 0, 0)" stroke="rgb(66, 66, 66)" stroke-width="1px" opacity="0.25"></line><line x1="135" y1="0" x2="135" y2="177" fill="rgb(0, 0, 0)" stroke="rgb(66, 66, 66)" stroke-width="1px" opacity="0.25"></line><line x1="154.28571428571428" y1="0" x2="154.28571428571428" y2="177" fill="rgb(0, 0, 0)" stroke="rgb(66, 66, 66)" stroke-width="1px" opacity="0.25"></line><line x1="173.57142857142858" y1="0" x2="173.57142857142858" y2="177" fill="rgb(0, 0, 0)" stroke="rgb(66, 66, 66)" stroke-width="1px" opacity="0.25"></line><line x1="192.85714285714286" y1="0" x2="192.85714285714286" y2="177" fill="rgb(0, 0, 0)" stroke="rgb(66, 66, 66)" stroke-width="1px" opacity="0.25"></line><line x1="212.14285714285714" y1="0" x2="212.14285714285714" y2="177" fill="rgb(0, 0, 0)" stroke="rgb(66, 66, 66)" stroke-width="1px" opacity="0.25"></line><line x1="231.42857142857142" y1="0" x2="231.42857142857142" y2="177" fill="rgb(0, 0, 0)" stroke="rgb(66, 66, 66)" stroke-width="1px" opacity="0.25"></line><line x1="250.71428571428572" y1="0" x2="250.71428571428572" y2="177" fill="rgb(0, 0, 0)" stroke="rgb(66, 66, 66)" stroke-width="1px" opacity="0.25"></line><line x1="270" y1="0" x2="270" y2="177" fill="rgb(0, 0, 0)" stroke="rgb(66, 66, 66)" stroke-width="1px" opacity="0.25"></line></g><g><line x1="0" y1="177" x2="270" y2="177" fill="rgb(0, 0, 0)" stroke="rgb(66, 66, 66)" stroke-width="1px" opacity="0.25"></line><line x1="0" y1="157.33333333333331" x2="270" y2="157.33333333333331" fill="rgb(0, 0, 0)" stroke="rgb(66, 66, 66)" stroke-width="1px" opacity="0.25"></line><line x1="0" y1="137.66666666666666" x2="270" y2="137.66666666666666" fill="rgb(0, 0, 0)" stroke="rgb(66, 66, 66)" stroke-width="1px" opacity="0.25"></line><line x1="0" y1="118.00000000000001" x2="270" y2="118.00000000000001" fill="rgb(0, 0, 0)" stroke="rgb(66, 66, 66)" stroke-width="1px" opacity="0.25"></line><line x1="0" y1="98.33333333333334" x2="270" y2="98.33333333333334" fill="rgb(0, 0, 0)" stroke="rgb(66, 66, 66)" stroke-width="1px" opacity="0.25"></line><line x1="0" y1="78.66666666666666" x2="270" y2="78.66666666666666" fill="rgb(0, 0, 0)" stroke="rgb(66, 66, 66)" stroke-width="1px" opacity="0.25"></line><line x1="0" y1="59.00000000000001" x2="270" y2="59.00000000000001" fill="rgb(0, 0, 0)" stroke="rgb(66, 66, 66)" stroke-width="1px" opacity="0.25"></line><line x1="0" y1="39.33333333333333" x2="270" y2="39.33333333333333" fill="rgb(0, 0, 0)" stroke="rgb(66, 66, 66)" stroke-width="1px" opacity="0.25"></line><line x1="0" y1="19.666666666666675" x2="270" y2="19.666666666666675" fill="rgb(0, 0, 0)" stroke="rgb(66, 66, 66)" stroke-width="1px" opacity="0.25"></line><line x1="0" y1="0" x2="270" y2="0" fill="rgb(0, 0, 0)" stroke="rgb(66, 66, 66)" stroke-width="1px" opacity="0.25"></line></g></g></g><g><g><line x1="0" y1="5821.333333333328" x2="270" y2="5821.333333333328" fill="rgb(0, 0, 0)" stroke="rgb(153, 153, 153)" stroke-width="1.5px"></line></g></g><g><g><line x1="19.285714285714285" y1="0" x2="19.285714285714285" y2="177" fill="rgb(0, 0, 0)" stroke="rgb(153, 153, 153)" stroke-width="1.5px"></line></g></g><g><g><g><g><g><path stroke="rgb(0, 119, 187)" stroke-width="2px" d="M38.57142857142857,197.93551810977843L40.5,175.19542686184369L42.42857142857143,161.58309369019094L44.357142857142854,153.42708104790884L46.285714285714285,148.53756587705456L48.214285714285715,145.60532853477523L50.142857142857146,143.84651563752058L52.07142857142858,142.7914184518128L54,142.15842872416735L55.92857142857143,141.7786595744626L57.857142857142854,141.550806971212L59.785714285714285,141.41409860827235L61.714285714285715,141.33207474212114L63.64285714285714,141.28286083700314L65.57142857142857,141.2533326431765L67.5,141.2356157806084L69.42857142857142,141.22498568241016L71.35714285714286,141.21860763045444L73.28571428571428,141.21478080178716L75.21428571428572,141.21248470548855L77.14285714285714,141.21110704803493L79.07142857142857,141.21028045367936L81,141.20978449710904L82.92857142857143,141.20948692318058L84.85714285714286,141.20930837883074L86.78571428571429,141.2092012522219L88.71428571428571,141.2091369762564L90.64285714285714,141.20909841067905L92.57142857142857,141.20907527133244L94.5,141.20906138772293L96.42857142857143,141.20905305755852L98.35714285714285,141.20904805945904L100.28571428571429,141.20904506059995L102.21428571428571,141.20904326128388L104.14285714285715,141.20904218169576L106.07142857142857,141.2090415339416L108,141.2090411452895L109.92857142857143,141.20904091209826L111.85714285714286,141.2090407721835L113.78571428571429,141.20904068823467L115.71428571428571,141.20904063786602L117.64285714285714,141.20904060764397L119.57142857142857,141.2090405895105L121.5,141.2090405786315L123.42857142857143,141.20904057210302L125.35714285714286,141.20904056818594L127.28571428571428,141.20904056583657L129.21428571428572,141.20904056442714L131.14285714285714,141.20904056357998L133.07142857142858,141.20904056307342L135,141.20904056276882L136.92857142857142,141.2090405625865L138.85714285714283,141.20904056247625L140.7857142857143,141.20904056241073L142.71428571428572,141.20904056237035L144.64285714285714,141.20904056234633L146.57142857142856,141.20904056233215L148.5,141.2090405623245L150.42857142857144,141.20904056232013L152.35714285714286,141.20904056231578L154.28571428571428,141.20904056231467L156.21428571428572,141.20904056231248L158.14285714285714,141.20904056231137L160.07142857142858,141.20904056231248L162,141.20904056231248L163.92857142857142,141.20904056231248L165.85714285714286,141.20904056231248L167.78571428571428,141.20904056231248L169.71428571428572,141.20904056231248L171.64285714285714,141.20904056231248L173.57142857142858,141.20904056231248L175.5,141.20904056231248L177.42857142857142,141.20904056231248L179.35714285714286,141.20904056231248L181.28571428571428,141.20904056231248L183.21428571428572,141.20904056231248L185.14285714285714,141.20904056231248L187.07142857142856,141.20904056231248L189,141.20904056231248L190.92857142857144,141.20904056231248L192.85714285714286,141.20904056231248L194.78571428571428,141.20904056231248L196.7142857142857,141.20904056231248L198.64285714285717,141.20904056231248L200.57142857142858,141.20904056231248L202.5,141.20904056231248L204.42857142857142,141.20904056231248L206.35714285714283,141.20904056231248L208.2857142857143,141.20904056231248L210.21428571428572,141.20904056231248L212.14285714285714,141.20904056231248L214.07142857142856,141.20904056231248L216,141.20904056231248L217.92857142857144,141.20904056231248L219.85714285714286,141.20904056231248L221.78571428571428,141.20904056231248L223.71428571428572,141.20904056231248L225.64285714285714,141.20904056231248L227.57142857142858,141.20904056231248L229.5,141.20904056231248L231.42857142857142,141.20904056231248L233.35714285714286,141.20904056231248L235.28571428571428,141.20904056231248L237.21428571428572,141.20904056231248L239.14285714285714,141.20904056231248L241.07142857142858,141.20904056231248L243,141.20904056231248L244.92857142857142,141.20904056231248L246.85714285714286,141.20904056231248L248.78571428571428,141.20904056231248L250.71428571428572,141.20904056231248L252.64285714285714,141.20904056231248" style="fill: none;" fill="none"></path></g><g><path stroke="rgb(255, 112, 67)" stroke-width="2px" d="M19.285714285714285,80.13261802991195L21.214285714285715,41.95948762694962L23.142857142857142,30.27383546277784L25.071428571428573,25.11840068446682L27,22.488806956459626L28.928571428571427,21.04832059632585L30.857142857142858,20.22828022986244L32.785714285714285,19.75119875520424L34.71428571428571,19.470130486625575L36.64285714285714,19.30331336671077L38.57142857142857,19.20387100011828L40.5,19.144436979212728L42.42857142857143,19.108859474907906L44.357142857142854,19.087542734328068L46.285714285714285,19.074763386009476L48.214285714285715,19.067099623643475L50.142857142857146,19.062502750157815L52.07142857142858,19.05974512409936L54,19.05809072771631L55.92857142857143,19.05709815440861L57.857142857142854,19.056502633650968L59.785714285714285,19.056145329557225L61.714285714285715,19.055930950111712L63.64285714285714,19.055802323525647L65.57142857142857,19.055725147965273L67.5,19.055678842769442L69.42857142857142,19.055651059703045L71.35714285714286,19.055634389880673L73.28571428571428,19.055624387993806L75.21428571428572,19.05561838686408L77.14285714285714,19.055614786187125L79.07142857142857,19.055612625781603L81,19.055611329537406L82.92857142857143,19.055610551792203L84.85714285714286,19.055610085144433L86.78571428571429,19.05560980515555L88.71428571428571,19.055609637162863L90.64285714285714,19.05560953636661L92.57142857142857,19.055609475888637L94.5,19.055609439602062L96.42857142857143,19.055609417830993L98.35714285714285,19.055609404766397L100.28571428571429,19.05560939693003L102.21428571428571,19.05560939222691L104.14285714285715,19.055609389404818L106.07142857142857,19.055609387712657L108,19.05560938669627L109.92857142857143,19.05560938608709L111.85714285714286,19.055609385720267L113.78571428571429,19.055609385500823L115.71428571428571,19.05560938536983L117.64285714285714,19.055609385291227L119.57142857142857,19.05560938524318L121.5,19.055609385214805L123.42857142857143,19.055609385198416L125.35714285714286,19.05560938518751L127.28571428571428,19.055609385180944L129.21428571428572,19.055609385176584L131.14285714285714,19.0556093851755L133.07142857142858,19.055609385174403L135,19.055609385174403L136.92857142857142,19.055609385174403L138.85714285714283,19.05560938517332L140.7857142857143,19.05560938517222L142.71428571428572,19.05560938517222L144.64285714285714,19.05560938517222L146.57142857142856,19.05560938517332L148.5,19.05560938517332L150.42857142857144,19.05560938517332L152.35714285714286,19.05560938517222L154.28571428571428,19.05560938517332L156.21428571428572,19.05560938517332L158.14285714285714,19.05560938517332L160.07142857142858,19.055609385174403L162,19.055609385174403L163.92857142857142,19.055609385174403L165.85714285714286,19.055609385174403L167.78571428571428,19.055609385174403" style="fill: none;" fill="none"></path></g></g></g></g><g opacity="0.2"><g><g><g><path stroke="rgb(0, 119, 187)" stroke-width="2px" d="M23.142857142857142,1668.1242927710198L25.071428571428573,141.20904056231137L27,141.20904056231137L28.928571428571427,1668.1242927710198L30.857142857142858,141.20904056231137L32.785714285714285,141.20904056231137L34.71428571428571,141.20904056231137L36.64285714285714,141.20904056231137L38.57142857142857,141.20904056231137L40.5,141.20904056231137L42.42857142857143,141.20904056231137L44.357142857142854,141.20904056231137L46.285714285714285,141.20904056231137L48.214285714285715,141.20904056231137L50.142857142857146,141.20904056231137L52.07142857142858,141.20904056231137L54,141.20904056231137L55.92857142857143,141.20904056231137L57.857142857142854,141.20904056231137L59.785714285714285,141.20904056231137L61.714285714285715,141.20904056231137L63.64285714285714,141.20904056231137L65.57142857142857,141.20904056231137L67.5,141.20904056231137L69.42857142857142,141.20904056231137L71.35714285714286,141.20904056231137L73.28571428571428,141.20904056231137L75.21428571428572,141.20904056231137L77.14285714285714,141.20904056231137L79.07142857142857,141.20904056231137L81,141.20904056231137L82.92857142857143,141.20904056231137L84.85714285714286,141.20904056231137L86.78571428571429,141.20904056231137L88.71428571428571,141.20904056231137L90.64285714285714,141.20904056231137L92.57142857142857,141.20904056231137L94.5,141.20904056231137L96.42857142857143,141.20904056231137L98.35714285714285,141.20904056231137L100.28571428571429,141.20904056231137L102.21428571428571,141.20904056231137L104.14285714285715,141.20904056231137L106.07142857142857,141.20904056231137L108,141.20904056231137L109.92857142857143,141.20904056231137L111.85714285714286,141.20904056231137L113.78571428571429,141.20904056231137L115.71428571428571,141.20904056231137L117.64285714285714,141.20904056231137L119.57142857142857,141.20904056231137L121.5,141.20904056231137L123.42857142857143,141.20904056231137L125.35714285714286,141.20904056231137L127.28571428571428,141.20904056231137L129.21428571428572,141.20904056231137L131.14285714285714,141.20904056231137L133.07142857142858,141.20904056231137L135,141.20904056231137L136.92857142857142,141.20904056231137L138.85714285714283,141.20904056231137L140.7857142857143,141.20904056231137L142.71428571428572,141.20904056231137L144.64285714285714,141.20904056231137L146.57142857142856,141.20904056231137L148.5,141.20904056231137L150.42857142857144,141.20904056231137L152.35714285714286,141.20904056231137L154.28571428571428,141.20904056231137L156.21428571428572,141.20904056231137L158.14285714285714,141.20904056231137L160.07142857142858,141.20904056231137L162,141.20904056231137L163.92857142857142,141.20904056231137L165.85714285714286,141.20904056231137L167.78571428571428,141.20904056231137L169.71428571428572,141.20904056231137L171.64285714285714,141.20904056231137L173.57142857142858,141.20904056231137L175.5,141.20904056231137L177.42857142857142,141.20904056231137L179.35714285714286,141.20904056231137L181.28571428571428,141.20904056231137L183.21428571428572,141.20904056231137L185.14285714285714,141.20904056231137L187.07142857142856,141.20904056231137L189,141.20904056231137L190.92857142857144,141.20904056231137L192.85714285714286,141.20904056231137L194.78571428571428,141.20904056231137L196.7142857142857,141.20904056231137L198.64285714285717,141.20904056231137L200.57142857142858,141.20904056231137L202.5,141.20904056231137L204.42857142857142,141.20904056231137L206.35714285714283,141.20904056231137L208.2857142857143,141.20904056231137L210.21428571428572,141.20904056231137L212.14285714285714,141.20904056231137L214.07142857142856,141.20904056231137L216,141.20904056231137L217.92857142857144,141.20904056231137L219.85714285714286,141.20904056231137L221.78571428571428,141.20904056231137L223.71428571428572,141.20904056231137L225.64285714285714,141.20904056231137L227.57142857142858,141.20904056231137L229.5,141.20904056231137L231.42857142857142,141.20904056231137L233.35714285714286,141.20904056231137L235.28571428571428,141.20904056231137L237.21428571428572,141.20904056231137L239.14285714285714,141.20904056231137L241.07142857142858,141.20904056231137L243,141.20904056231137L244.92857142857142,141.20904056231137L246.85714285714286,141.20904056231137L248.78571428571428,141.20904056231137L250.71428571428572,141.20904056231137L252.64285714285714,141.20904056231137" style="fill: none;" fill="none"></path></g><g><path stroke="rgb(255, 112, 67)" stroke-width="2px" d="M19.285714285714285,80.13261802991195L21.214285714285715,19.05560938517222L23.142857142857142,19.05560938517222L25.071428571428573,19.05560938517222L27,19.05560938517222L28.928571428571427,19.05560938517222L30.857142857142858,19.05560938517222L32.785714285714285,19.05560938517222L34.71428571428571,19.05560938517222L36.64285714285714,19.05560938517222L38.57142857142857,19.05560938517222L40.5,19.05560938517222L42.42857142857143,19.05560938517222L44.357142857142854,19.05560938517222L46.285714285714285,19.05560938517222L48.214285714285715,19.05560938517222L50.142857142857146,19.05560938517222L52.07142857142858,19.05560938517222L54,19.05560938517222L55.92857142857143,19.05560938517222L57.857142857142854,19.05560938517222L59.785714285714285,19.05560938517222L61.714285714285715,19.05560938517222L63.64285714285714,19.05560938517222L65.57142857142857,19.05560938517222L67.5,19.05560938517222L69.42857142857142,19.05560938517222L71.35714285714286,19.05560938517222L73.28571428571428,19.05560938517222L75.21428571428572,19.05560938517222L77.14285714285714,19.05560938517222L79.07142857142857,19.05560938517222L81,19.05560938517222L82.92857142857143,19.05560938517222L84.85714285714286,19.05560938517222L86.78571428571429,19.05560938517222L88.71428571428571,19.05560938517222L90.64285714285714,19.05560938517222L92.57142857142857,19.05560938517222L94.5,19.05560938517222L96.42857142857143,19.05560938517222L98.35714285714285,19.05560938517222L100.28571428571429,19.05560938517222L102.21428571428571,19.05560938517222L104.14285714285715,19.05560938517222L106.07142857142857,19.05560938517222L108,19.05560938517222L109.92857142857143,19.05560938517222L111.85714285714286,19.05560938517222L113.78571428571429,19.05560938517222L115.71428571428571,19.05560938517222L117.64285714285714,19.05560938517222L119.57142857142857,19.05560938517222L121.5,19.05560938517222L123.42857142857143,19.05560938517222L125.35714285714286,19.05560938517222L127.28571428571428,19.05560938517222L129.21428571428572,19.05560938517222L131.14285714285714,19.05560938517222L133.07142857142858,19.05560938517222L135,19.05560938517222L136.92857142857142,19.05560938517222L138.85714285714283,19.05560938517222L140.7857142857143,19.05560938517222L142.71428571428572,19.05560938517222L144.64285714285714,19.05560938517222L146.57142857142856,19.05560938517222L148.5,19.05560938517222L150.42857142857144,19.05560938517222L152.35714285714286,19.05560938517222L154.28571428571428,19.05560938517222L156.21428571428572,19.05560938517222L158.14285714285714,19.05560938517222L160.07142857142858,19.05560938517222L162,19.05560938517222L163.92857142857142,19.05560938517222L165.85714285714286,19.05560938517222L167.78571428571428,19.05560938517222" style="fill: none;" fill="none"></path></g></g></g></g></g></g><g transform="translate(60, 177)" clip-path="url(#clip_1)"><clipPath id="clip_1"><rect width="270" height="23"></rect></clipPath><g><g><line x1="0" y1="0" x2="0" y2="5" style="visibility: inherit;" fill="rgb(0, 0, 0)" stroke="rgb(204, 204, 204)" stroke-width="1px"></line><line x1="19.285714285714285" y1="0" x2="19.285714285714285" y2="5" style="visibility: inherit;" fill="rgb(0, 0, 0)" stroke="rgb(204, 204, 204)" stroke-width="1px"></line><line x1="38.57142857142857" y1="0" x2="38.57142857142857" y2="5" style="visibility: inherit;" fill="rgb(0, 0, 0)" stroke="rgb(204, 204, 204)" stroke-width="1px"></line><line x1="57.857142857142854" y1="0" x2="57.857142857142854" y2="5" style="visibility: inherit;" fill="rgb(0, 0, 0)" stroke="rgb(204, 204, 204)" stroke-width="1px"></line><line x1="77.14285714285714" y1="0" x2="77.14285714285714" y2="5" style="visibility: inherit;" fill="rgb(0, 0, 0)" stroke="rgb(204, 204, 204)" stroke-width="1px"></line><line x1="96.42857142857143" y1="0" x2="96.42857142857143" y2="5" style="visibility: inherit;" fill="rgb(0, 0, 0)" stroke="rgb(204, 204, 204)" stroke-width="1px"></line><line x1="115.71428571428571" y1="0" x2="115.71428571428571" y2="5" style="visibility: inherit;" fill="rgb(0, 0, 0)" stroke="rgb(204, 204, 204)" stroke-width="1px"></line><line x1="135" y1="0" x2="135" y2="5" style="visibility: inherit;" fill="rgb(0, 0, 0)" stroke="rgb(204, 204, 204)" stroke-width="1px"></line><line x1="154.28571428571428" y1="0" x2="154.28571428571428" y2="5" style="visibility: inherit;" fill="rgb(0, 0, 0)" stroke="rgb(204, 204, 204)" stroke-width="1px"></line><line x1="173.57142857142858" y1="0" x2="173.57142857142858" y2="5" style="visibility: inherit;" fill="rgb(0, 0, 0)" stroke="rgb(204, 204, 204)" stroke-width="1px"></line><line x1="192.85714285714286" y1="0" x2="192.85714285714286" y2="5" style="visibility: inherit;" fill="rgb(0, 0, 0)" stroke="rgb(204, 204, 204)" stroke-width="1px"></line><line x1="212.14285714285714" y1="0" x2="212.14285714285714" y2="5" style="visibility: inherit;" fill="rgb(0, 0, 0)" stroke="rgb(204, 204, 204)" stroke-width="1px"></line><line x1="231.42857142857142" y1="0" x2="231.42857142857142" y2="5" style="visibility: inherit;" fill="rgb(0, 0, 0)" stroke="rgb(204, 204, 204)" stroke-width="1px"></line><line x1="250.71428571428572" y1="0" x2="250.71428571428572" y2="5" style="visibility: inherit;" fill="rgb(0, 0, 0)" stroke="rgb(204, 204, 204)" stroke-width="1px"></line><line x1="270" y1="0" x2="270" y2="5" style="visibility: inherit;" fill="rgb(0, 0, 0)" stroke="rgb(204, 204, 204)" stroke-width="1px"></line></g><g transform="translate(0, 8)"><text x="0" y="0" dx="0em" dy="0.95em" style="text-anchor: middle; visibility: hidden; font-family: Roboto, sans-serif; font-size: 12px; font-weight: 200;" fill="rgb(33, 33, 33)" stroke="none" stroke-width="1px">-10</text><text x="19.285714285714285" y="0" dx="0em" dy="0.95em" style="text-anchor: middle; visibility: inherit; font-family: Roboto, sans-serif; font-size: 12px; font-weight: 200;" fill="rgb(33, 33, 33)" stroke="none" stroke-width="1px">0</text><text x="38.57142857142857" y="0" dx="0em" dy="0.95em" style="text-anchor: middle; visibility: hidden; font-family: Roboto, sans-serif; font-size: 12px; font-weight: 200;" fill="rgb(33, 33, 33)" stroke="none" stroke-width="1px">10</text><text x="57.857142857142854" y="0" dx="0em" dy="0.95em" style="text-anchor: middle; visibility: inherit; font-family: Roboto, sans-serif; font-size: 12px; font-weight: 200;" fill="rgb(33, 33, 33)" stroke="none" stroke-width="1px">20</text><text x="77.14285714285714" y="0" dx="0em" dy="0.95em" style="text-anchor: middle; visibility: hidden; font-family: Roboto, sans-serif; font-size: 12px; font-weight: 200;" fill="rgb(33, 33, 33)" stroke="none" stroke-width="1px">30</text><text x="96.42857142857143" y="0" dx="0em" dy="0.95em" style="text-anchor: middle; visibility: inherit; font-family: Roboto, sans-serif; font-size: 12px; font-weight: 200;" fill="rgb(33, 33, 33)" stroke="none" stroke-width="1px">40</text><text x="115.71428571428571" y="0" dx="0em" dy="0.95em" style="text-anchor: middle; visibility: hidden; font-family: Roboto, sans-serif; font-size: 12px; font-weight: 200;" fill="rgb(33, 33, 33)" stroke="none" stroke-width="1px">50</text><text x="135" y="0" dx="0em" dy="0.95em" style="text-anchor: middle; visibility: inherit; font-family: Roboto, sans-serif; font-size: 12px; font-weight: 200;" fill="rgb(33, 33, 33)" stroke="none" stroke-width="1px">60</text><text x="154.28571428571428" y="0" dx="0em" dy="0.95em" style="text-anchor: middle; visibility: hidden; font-family: Roboto, sans-serif; font-size: 12px; font-weight: 200;" fill="rgb(33, 33, 33)" stroke="none" stroke-width="1px">70</text><text x="173.57142857142858" y="0" dx="0em" dy="0.95em" style="text-anchor: middle; visibility: inherit; font-family: Roboto, sans-serif; font-size: 12px; font-weight: 200;" fill="rgb(33, 33, 33)" stroke="none" stroke-width="1px">80</text><text x="192.85714285714286" y="0" dx="0em" dy="0.95em" style="text-anchor: middle; visibility: hidden; font-family: Roboto, sans-serif; font-size: 12px; font-weight: 200;" fill="rgb(33, 33, 33)" stroke="none" stroke-width="1px">90</text><text x="212.14285714285714" y="0" dx="0em" dy="0.95em" style="text-anchor: middle; visibility: inherit; font-family: Roboto, sans-serif; font-size: 12px; font-weight: 200;" fill="rgb(33, 33, 33)" stroke="none" stroke-width="1px">100</text><text x="231.42857142857142" y="0" dx="0em" dy="0.95em" style="text-anchor: middle; visibility: hidden; font-family: Roboto, sans-serif; font-size: 12px; font-weight: 200;" fill="rgb(33, 33, 33)" stroke="none" stroke-width="1px">110</text><text x="250.71428571428572" y="0" dx="0em" dy="0.95em" style="text-anchor: middle; visibility: inherit; font-family: Roboto, sans-serif; font-size: 12px; font-weight: 200;" fill="rgb(33, 33, 33)" stroke="none" stroke-width="1px">120</text><text x="270" y="0" dx="0em" dy="0.95em" style="text-anchor: middle; visibility: hidden; font-family: Roboto, sans-serif; font-size: 12px; font-weight: 200;" fill="rgb(33, 33, 33)" stroke="none" stroke-width="1px">130</text></g><line x1="0" y1="0" x2="270" y2="0" fill="rgb(0, 0, 0)" stroke="rgb(204, 204, 204)" stroke-width="1px"></line></g></g></g></g></svg>