<svg viewBox="0 0 330 200" xmlns="http://www.w3.org/2000/svg"><g><g><g><g><g><line x1="51.5625" y1="177" x2="46.5625" y2="177" style="visibility: inherit;" fill="rgb(0, 0, 0)" stroke="rgb(204, 204, 204)" stroke-width="1px"></line><line x1="51.5625" y1="160.90909090909108" x2="46.5625" y2="160.90909090909108" style="visibility: inherit;" fill="rgb(0, 0, 0)" stroke="rgb(204, 204, 204)" stroke-width="1px"></line><line x1="51.5625" y1="144.81818181818196" x2="46.5625" y2="144.81818181818196" style="visibility: inherit;" fill="rgb(0, 0, 0)" stroke="rgb(204, 204, 204)" stroke-width="1px"></line><line x1="51.5625" y1="128.72727272727286" x2="46.5625" y2="128.72727272727286" style="visibility: inherit;" fill="rgb(0, 0, 0)" stroke="rgb(204, 204, 204)" stroke-width="1px"></line><line x1="51.5625" y1="112.63636363636375" x2="46.5625" y2="112.63636363636375" style="visibility: inherit;" fill="rgb(0, 0, 0)" stroke="rgb(204, 204, 204)" stroke-width="1px"></line><line x1="51.5625" y1="96.54545454545466" x2="46.5625" y2="96.54545454545466" style="visibility: inherit;" fill="rgb(0, 0, 0)" stroke="rgb(204, 204, 204)" stroke-width="1px"></line><line x1="51.5625" y1="80.45454545454554" x2="46.5625" y2="80.45454545454554" style="visibility: inherit;" fill="rgb(0, 0, 0)" stroke="rgb(204, 204, 204)" stroke-width="1px"></line><line x1="51.5625" y1="64.36363636363643" x2="46.5625" y2="64.36363636363643" style="visibility: inherit;" fill="rgb(0, 0, 0)" stroke="rgb(204, 204, 204)" stroke-width="1px"></line><line x1="51.5625" y1="48.27272727272733" x2="46.5625" y2="48.27272727272733" style="visibility: inherit;" fill="rgb(0, 0, 0)" stroke="rgb(204, 204, 204)" stroke-width="1px"></line><line x1="51.5625" y1="32.181818181818215" x2="46.5625" y2="32.181818181818215" style="visibility: inherit;" fill="rgb(0, 0, 0)" stroke="rgb(204, 204, 204)" stroke-width="1px"></line><line x1="51.5625" y1="16.090909090909115" x2="46.5625" y2="16.090909090909115" style="visibility: inherit;" fill="rgb(0, 0, 0)" stroke="rgb(204, 204, 204)" stroke-width="1px"></line><line x1="51.5625" y1="0" x2="46.5625" y2="0" style="visibility: inherit;" fill="rgb(0, 0, 0)" stroke="rgb(204, 204, 204)" stroke-width="1px"></line></g><g transform="translate(41.5625, 0)"><text x="0" y="177" dx="0em" dy="0.3em" style="text-anchor: end; visibility: hidden; font-family: Roboto, sans-serif; font-size: 12px; font-weight: 200;" fill="rgb(33, 33, 33)" stroke="none" stroke-width="1px">0.68</text><text x="0" y="160.90909090909108" dx="0em" dy="0.3em" style="text-anchor: end; visibility: inherit; font-family: Roboto, sans-serif; font-size: 12px; font-weight: 200;" fill="rgb(33, 33, 33)" stroke="none" stroke-width="1px">0.69</text><text x="0" y="144.81818181818196" dx="0em" dy="0.3em" style="text-anchor: end; visibility: hidden; font-family: Roboto, sans-serif; font-size: 12px; font-weight: 200;" fill="rgb(33, 33, 33)" stroke="none" stroke-width="1px">0.7</text><text x="0" y="128.72727272727286" dx="0em" dy="0.3em" style="text-anchor: end; visibility: inherit; font-family: Roboto, sans-serif; font-size: 12px; font-weight: 200;" fill="rgb(33, 33, 33)" stroke="none" stroke-width="1px">0.71</text><text x="0" y="112.63636363636375" dx="0em" dy="0.3em" style="text-anchor: end; visibility: hidden; font-family: Roboto, sans-serif; font-size: 12px; font-weight: 200;" fill="rgb(33, 33, 33)" stroke="none" stroke-width="1px">0.72</text><text x="0" y="96.54545454545466" dx="0em" dy="0.3em" style="text-anchor: end; visibility: inherit; font-family: Roboto, sans-serif; font-size: 12px; font-weight: 200;" fill="rgb(33, 33, 33)" stroke="none" stroke-width="1px">0.73</text><text x="0" y="80.45454545454554" dx="0em" dy="0.3em" style="text-anchor: end; visibility: hidden; font-family: Roboto, sans-serif; font-size: 12px; font-weight: 200;" fill="rgb(33, 33, 33)" stroke="none" stroke-width="1px">0.74</text><text x="0" y="64.36363636363643" dx="0em" dy="0.3em" style="text-anchor: end; visibility: inherit; font-family: Roboto, sans-serif; font-size: 12px; font-weight: 200;" fill="rgb(33, 33, 33)" stroke="none" stroke-width="1px">0.75</text><text x="0" y="48.27272727272733" dx="0em" dy="0.3em" style="text-anchor: end; visibility: hidden; font-family: Roboto, sans-serif; font-size: 12px; font-weight: 200;" fill="rgb(33, 33, 33)" stroke="none" stroke-width="1px">0.76</text><text x="0" y="32.181818181818215" dx="0em" dy="0.3em" style="text-anchor: end; visibility: inherit; font-family: Roboto, sans-serif; font-size: 12px; font-weight: 200;" fill="rgb(33, 33, 33)" stroke="none" stroke-width="1px">0.77</text><text x="0" y="16.090909090909115" dx="0em" dy="0.3em" style="text-anchor: end; visibility: hidden; font-family: Roboto, sans-serif; font-size: 12px; font-weight: 200;" fill="rgb(33, 33, 33)" stroke="none" stroke-width="1px">0.78</text><text x="0" y="0" dx="0em" dy="0.3em" style="text-anchor: end; visibility: hidden; font-family: Roboto, sans-serif; font-size: 12px; font-weight: 200;" fill="rgb(33, 33, 33)" stroke="none" stroke-width="1px">0.79</text></g><line x1="51.5625" y1="0" x2="51.5625" y2="177" fill="rgb(0, 0, 0)" stroke="rgb(204, 204, 204)" stroke-width="1px"></line></g></g><g transform="translate(51, 0)" clip-path="url(#clip_0)"><clipPath id="clip_0"><rect width="278" height="177"></rect></clipPath><g><g><g><line x1="0" y1="0" x2="0" y2="177" fill="rgb(0, 0, 0)" stroke="rgb(66, 66, 66)" stroke-width="1px" opacity="0.25"></line><line x1="19.888392857142858" y1="0" x2="19.888392857142858" y2="177" fill="rgb(0, 0, 0)" stroke="rgb(66, 66, 66)" stroke-width="1px" opacity="0.25"></line><line x1="39.776785714285715" y1="0" x2="39.776785714285715" y2="177" fill="rgb(0, 0, 0)" stroke="rgb(66, 66, 66)" stroke-width="1px" opacity="0.25"></line><line x1="59.66517857142857" y1="0" x2="59.66517857142857" y2="177" fill="rgb(0, 0, 0)" stroke="rgb(66, 66, 66)" stroke-width="1px" opacity="0.25"></line><line x1="79.55357142857143" y1="0" x2="79.55357142857143" y2="177" fill="rgb(0, 0, 0)" stroke="rgb(66, 66, 66)" stroke-width="1px" opacity="0.25"></line><line x1="99.44196428571429" y1="0" x2="99.44196428571429" y2="177" fill="rgb(0, 0, 0)" stroke="rgb(66, 66, 66)" stroke-width="1px" opacity="0.25"></line><line x1="119.33035714285714" y1="0" x2="119.33035714285714" y2="177" fill="rgb(0, 0, 0)" stroke="rgb(66, 66, 66)" stroke-width="1px" opacity="0.25"></line><line x1="139.21875" y1="0" x2="139.21875" y2="177" fill="rgb(0, 0, 0)" stroke="rgb(66, 66, 66)" stroke-width="1px" opacity="0.25"></line><line x1="159.10714285714286" y1="0" x2="159.10714285714286" y2="177" fill="rgb(0, 0, 0)" stroke="rgb(66, 66, 66)" stroke-width="1px" opacity="0.25"></line><line x1="178.99553571428572" y1="0" x2="178.99553571428572" y2="177" fill="rgb(0, 0, 0)" stroke="rgb(66, 66, 66)" stroke-width="1px" opacity="0.25"></line><line x1="198.88392857142858" y1="0" x2="198.88392857142858" y2="177" fill="rgb(0, 0, 0)" stroke="rgb(66, 66, 66)" stroke-width="1px" opacity="0.25"></line><line x1="218.77232142857142" y1="0" x2="218.77232142857142" y2="177" fill="rgb(0, 0, 0)" stroke="rgb(66, 66, 66)" stroke-width="1px" opacity="0.25"></line><line x1="238.66071428571428" y1="0" x2="238.66071428571428" y2="177" fill="rgb(0, 0, 0)" stroke="rgb(66, 66, 66)" stroke-width="1px" opacity="0.25"></line><line x1="258.54910714285717" y1="0" x2="258.54910714285717" y2="177" fill="rgb(0, 0, 0)" stroke="rgb(66, 66, 66)" stroke-width="1px" opacity="0.25"></line><line x1="278.4375" y1="0" x2="278.4375" y2="177" fill="rgb(0, 0, 0)" stroke="rgb(66, 66, 66)" stroke-width="1px" opacity="0.25"></line></g><g><line x1="0" y1="177" x2="278.4375" y2="177" fill="rgb(0, 0, 0)" stroke="rgb(66, 66, 66)" stroke-width="1px" opacity="0.25"></line><line x1="0" y1="160.90909090909108" x2="278.4375" y2="160.90909090909108" fill="rgb(0, 0, 0)" stroke="rgb(66, 66, 66)" stroke-width="1px" opacity="0.25"></line><line x1="0" y1="144.81818181818196" x2="278.4375" y2="144.81818181818196" fill="rgb(0, 0, 0)" stroke="rgb(66, 66, 66)" stroke-width="1px" opacity="0.25"></line><line x1="0" y1="128.72727272727286" x2="278.4375" y2="128.72727272727286" fill="rgb(0, 0, 0)" stroke="rgb(66, 66, 66)" stroke-width="1px" opacity="0.25"></line><line x1="0" y1="112.63636363636375" x2="278.4375" y2="112.63636363636375" fill="rgb(0, 0, 0)" stroke="rgb(66, 66, 66)" stroke-width="1px" opacity="0.25"></line><line x1="0" y1="96.54545454545466" x2="278.4375" y2="96.54545454545466" fill="rgb(0, 0, 0)" stroke="rgb(66, 66, 66)" stroke-width="1px" opacity="0.25"></line><line x1="0" y1="80.45454545454554" x2="278.4375" y2="80.45454545454554" fill="rgb(0, 0, 0)" stroke="rgb(66, 66, 66)" stroke-width="1px" opacity="0.25"></line><line x1="0" y1="64.36363636363643" x2="278.4375" y2="64.36363636363643" fill="rgb(0, 0, 0)" stroke="rgb(66, 66, 66)" stroke-width="1px" opacity="0.25"></line><line x1="0" y1="48.27272727272733" x2="278.4375" y2="48.27272727272733" fill="rgb(0, 0, 0)" stroke="rgb(66, 66, 66)" stroke-width="1px" opacity="0.25"></line><line x1="0" y1="32.181818181818215" x2="278.4375" y2="32.181818181818215" fill="rgb(0, 0, 0)" stroke="rgb(66, 66, 66)" stroke-width="1px" opacity="0.25"></line><line x1="0" y1="16.090909090909115" x2="278.4375" y2="16.090909090909115" fill="rgb(0, 0, 0)" stroke="rgb(66, 66, 66)" stroke-width="1px" opacity="0.25"></line><line x1="0" y1="0" x2="278.4375" y2="0" fill="rgb(0, 0, 0)" stroke="rgb(66, 66, 66)" stroke-width="1px" opacity="0.25"></line></g></g></g><g><g><line x1="0" y1="1271.1818181818185" x2="278.4375" y2="1271.1818181818185" fill="rgb(0, 0, 0)" stroke="rgb(153, 153, 153)" stroke-width="1.5px"></line></g></g><g><g><line x1="19.888392857142858" y1="0" x2="19.888392857142858" y2="177" fill="rgb(0, 0, 0)" stroke="rgb(153, 153, 153)" stroke-width="1.5px"></line></g></g><g><g><g><g><g><path stroke="rgb(0, 119, 187)" stroke-width="2px" d="M39.776785714285715,-18.14559423668647L41.765625,10.29956760302485L43.754464285714285,46.82556701883967L45.74330357142857,94.25719556557927L47.732142857142854,126.69674245798386L49.720982142857146,144.64074467641845L51.70982142857143,145.10346071324068L53.698660714285715,133.36484082354204L55.6875,124.18018653156865L57.67633928571429,126.26949868549188L59.66517857142857,137.1220414276931L61.654017857142854,149.24019226072488L63.64285714285714,158.02075831385955L65.63169642857143,162.322820415962L67.62053571428571,161.31384271278114L69.609375,155.05010695355838L71.59821428571428,146.47844858794863L73.58705357142857,140.22563453791668L75.57589285714285,139.31911794415524L77.56473214285714,143.4232037041477L79.55357142857143,149.84187503748723L81.54241071428572,155.78777476134263L83.53125,159.63552289382562L85.52008928571429,160.65403818585094L87.50892857142857,158.66151692827216L89.49776785714286,154.37902932624297L91.48660714285714,149.60396833600058L93.47544642857142,146.4388124029777L95.46428571428571,146.10641632163367L97.453125,148.3783693140892L99.44196428571429,151.97960362120477L101.43080357142857,155.45403295929313L103.41964285714286,157.74596972310925L105.40848214285714,158.3029104285168L107.39732142857143,157.05955881593528L109.38616071428571,154.52200063662363L111.375,151.72072632007686L113.36383928571429,149.80659524080022L115.35267857142858,149.48316668718363L117.34151785714286,150.69763341804008L119.33035714285714,152.78634558150713L121.31919642857143,154.88618338234667L123.30803571428571,156.2871494495902L125.296875,156.59355269694572L127.28571428571428,155.78135746558465L129.27455357142858,154.21540606468295L131.26339285714286,152.55160497803186L133.25223214285714,151.46972978709263L135.24107142857142,151.35823380003157L137.22991071428572,152.1574354787024L139.21875,153.44892455238045L141.20758928571428,154.68963024620442L143.19642857142856,155.43083111028594L145.18526785714286,155.446990548149L147.17410714285714,154.7885820824627L149.16294642857142,153.7627607711116L151.1517857142857,152.81584383470138L153.140625,152.33662076844163L155.12946428571428,152.48113910750223L157.11830357142858,153.12400891366457L159.10714285714286,153.95006953901137L161.09598214285717,154.61093844255913L163.08482142857144,154.86106384130628L165.07366071428572,154.63605702121455L167.0625,154.06673729105063L169.05133928571428,153.42138154317902L171.04017857142858,152.9852159917948L173.02901785714286,152.9291461831145L175.01785714285714,153.23993374750805L177.00669642857142,153.74593768353031L178.99553571428572,154.21158838498735L180.984375,154.44317761470492L182.97321428571428,154.3630359657818L184.96205357142856,154.03278583922375L186.95089285714283,153.62006749511983L188.93973214285714,153.31815182935847L190.92857142857142,153.25420358478382L192.91741071428572,153.43423927789016L194.90625,153.75230204333823L196.8950892857143,154.05121029288634L198.88392857142858,154.1981379019032L200.87276785714286,154.14032052481673L202.86160714285714,153.92259680562105L204.85044642857144,153.6605284802815L206.83928571428572,153.48176543994214L208.828125,153.4634347113252L210.81696428571428,153.5987938538198L212.80580357142856,153.80845106322695L214.79464285714286,153.98572949684242L216.78348214285714,154.04935937647517L218.77232142857142,153.97938998654195L220.7611607142857,153.8217801100893L222.75,153.6616122284571L224.73883928571428,153.57805643487754L226.72767857142858,153.60530257555388L228.71651785714286,153.7190941006801L230.70535714285717,153.85458224762291L232.69419642857144,153.94228187649745L234.68303571428572,153.94295718124914L236.671875,153.86429474373597L238.66071428571428,153.75352860245872L240.64955357142858,153.67026560972585L242.63839285714286,153.6547200680728L244.62723214285714,153.70842432981462L246.61607142857142,153.7969264594334L248.60491071428572,153.87112778145521L250.59375,153.8937428923644L252.58258928571428,153.85786112793036L254.57142857142856,153.78784033121056L256.56026785714283,153.72392217087494L258.54910714285717,153.6995740313126L260.53794642857144,153.72405777501365" style="fill: none;" fill="none"></path></g><g><path stroke="rgb(255, 112, 67)" stroke-width="2px" d="M19.888392857142858,156.3903284506365L21.877232142857142,159.47752867503624L23.866071428571427,160.42258996821963L25.854910714285715,160.8395287740358L27.84375,161.05219360559366L29.832589285714285,161.16869098915387L31.82142857142857,161.23501064323125L33.810267857142854,161.2735939613943L35.79910714285714,161.29632497697168L37.78794642857142,161.3098160856283L39.776785714285715,161.31785835235425L41.765625,161.3226649983047L43.754464285714285,161.3255422807839L45.74330357142857,161.32726624330948L47.732142857142854,161.32829975579816L49.720982142857146,161.32891955220052L51.70982142857143,161.32929131811824L53.698660714285715,161.3295143373912L55.6875,161.32964813445807L57.67633928571429,161.3297284074801L59.66517857142857,161.32977656941523L61.654017857142854,161.3298054658997L63.64285714285714,161.32982280354716L65.63169642857143,161.329833206048L67.62053571428571,161.32983944751672L69.609375,161.3298431923869L71.59821428571428,161.32984543930482L73.58705357142857,161.32984678745413L75.57589285714285,161.32984759634306L77.56473214285714,161.32984808167646L79.55357142857143,161.32984837287634L81.54241071428572,161.32984854759613L83.53125,161.32984865242787L85.52008928571429,161.32984871532716L87.50892857142857,161.32984875306678L89.49776785714286,161.3298487757106L91.48660714285714,161.32984878929653L93.47544642857142,161.32984879744828L95.46428571428571,161.3298488023394L97.453125,161.329848805274L99.44196428571429,161.3298488070349L101.43080357142857,161.32984880809124L103.41964285714286,161.32984880872488L105.40848214285714,161.32984880910521L107.39732142857143,161.32984880933353L109.38616071428571,161.32984880947055L111.375,161.32984880955274L113.36383928571429,161.32984880960203L115.35267857142858,161.32984880963153L117.34151785714286,161.32984880964904L119.33035714285714,161.32984880965992L121.31919642857143,161.32984880966634L123.30803571428571,161.32984880966993L125.296875,161.32984880967223L127.28571428571428,161.32984880967368L129.27455357142858,161.32984880967456L131.26339285714286,161.3298488096751L133.25223214285714,161.32984880967547L135.24107142857142,161.3298488096758L137.22991071428572,161.32984880967598L139.21875,161.3298488096758L141.20758928571428,161.32984880967598L143.19642857142856,161.3298488096758L145.18526785714286,161.32984880967598L147.17410714285714,161.32984880967598L149.16294642857142,161.3298488096758L151.1517857142857,161.3298488096758L153.140625,161.3298488096758L155.12946428571428,161.3298488096758L157.11830357142858,161.3298488096758L159.10714285714286,161.32984880967598L161.09598214285717,161.32984880967598L163.08482142857144,161.32984880967598L165.07366071428572,161.32984880967615L167.0625,161.32984880967615L169.05133928571428,161.32984880967615L171.04017857142858,161.32984880967615L173.02901785714286,161.32984880967615" style="fill: none;" fill="none"></path></g></g></g></g><g opacity="0.2"><g><g><g><path stroke="rgb(0, 119, 187)" stroke-width="2px" d="M33.810267857142854,-89.2952299768274L35.79910714285714,175.31035449288115L37.78794642857142,175.28637716986924L39.776785714285715,119.27256924455823L41.765625,52.81251304799867L43.754464285714285,101.49530241706162L45.74330357142857,165.3117148876191L47.732142857142854,175.31793132695293L49.720982142857146,171.54409250346106L51.70982142857143,145.79733896255502L53.698660714285715,115.75989142331217L55.6875,110.40460428324619L57.67633928571429,129.40327594496995L59.66517857142857,153.40026036175823L61.654017857142854,167.4170197573576L63.64285714285714,171.19143403660175L65.63169642857143,168.77586260708904L67.62053571428571,159.80038332939156L69.609375,145.65453002669602L71.59821428571428,133.62098297205844L73.58705357142857,130.8464230624113L75.57589285714285,137.95934388854295L77.56473214285714,149.57933007587093L79.55357142857143,159.46987990899527L81.54241071428572,164.70662316409033L83.53125,165.40714463320654L85.52008928571429,162.18181105093532L87.50892857142857,155.67273512753582L89.49776785714286,147.95529803362766L91.48660714285714,142.44137692451486L93.47544642857142,141.69107853282588L95.46428571428571,145.6078222014688L97.453125,151.78629879517996L99.44196428571429,157.38145507465717L101.43080357142857,160.66567696224567L103.41964285714286,161.18387486717924L105.40848214285714,159.13832148638647L107.39732142857143,155.19453139738613L109.38616071428571,150.71566336805176L111.375,147.5188148455187L113.36383928571429,146.9353986219927L115.35267857142858,148.99802385676998L117.34151785714286,152.51933351430034L119.33035714285714,155.91941382668242L121.31919642857143,158.0359400835905L123.30803571428571,158.38859855044979L125.296875,157.053157567978L127.28571428571428,154.56306461854422L129.27455357142858,151.86647896333182L131.26339285714286,150.05590334805584L133.25223214285714,149.84691700068393L135.24107142857142,151.19098981944003L137.22991071428572,153.35623799670833L139.21875,155.38615816289735L141.20758928571428,156.5506887869402L143.19642857142856,156.54263240640822L145.18526785714286,155.47122970494365L147.17410714285714,153.8009693839334L149.16294642857142,152.22402880408555L151.1517857142857,151.3954684300857L153.140625,151.6177861690522L155.12946428571428,152.6979166160931L157.11830357142858,154.08831362290823L159.10714285714286,155.18916047703144L161.09598214285717,155.60224179788077L163.08482142857144,155.23625193942684L165.07366071428572,154.29854679107675L167.0625,153.212757695805L169.05133928571428,152.45334792137155L171.04017857142858,152.3309676647187L173.02901785714286,152.84504147009426L175.01785714285714,153.70611509409824L177.00669642857142,154.50494358756333L178.99553571428572,154.9100644371727L180.984375,154.7905614592813L182.97321428571428,154.24282349239704L184.96205357142856,153.5374106493864L186.95089285714283,153.00098997896376L188.93973214285714,152.86527833071628L190.92857142857142,153.15828121792194L192.91741071428572,153.70429281754934L194.90625,154.22939619151035L196.8950892857143,154.49957266720867L198.88392857142858,154.41852931542837L200.87276785714286,154.05359445918697L202.86160714285714,153.59601122682753L204.85044642857144,153.2674259922722L206.83928571428572,153.21362087943345L208.828125,153.43593861839994L210.81696428571428,153.80183256756183L212.80580357142856,154.12293687733745L214.79464285714286,154.25164714726543L216.78348214285714,154.14480419592434L218.77232142857142,153.87443590164193L220.7611607142857,153.58536529541024L222.75,153.42136040600872L224.73883928571428,153.45272274450832L226.72767857142858,153.64617178656846L228.71651785714286,153.88978138836956L230.70535714285717,154.05781446803707L232.69419642857144,154.07383131980905L234.68303571428572,153.94397013837647L236.671875,153.74630108746624L238.66071428571428,153.58737939054322L240.64955357142858,153.54537112062636L242.63839285714286,153.63140175559312L244.62723214285714,153.78898072242745L246.61607142857142,153.92967965386137L248.60491071428572,153.9824297644876L250.59375,153.92766555872836L252.58258928571428,153.80403848127895L254.57142857142856,153.68280913613066L256.56026785714283,153.62804493037143L258.54910714285717,153.66305182196885L260.53794642857144,153.76078339056545" style="fill: none;" fill="none"></path></g><g><path stroke="rgb(255, 112, 67)" stroke-width="2px" d="M19.888392857142858,156.3903284506365L21.877232142857142,161.3298488096758L23.866071428571427,161.3298488096758L25.854910714285715,161.3298488096758L27.84375,161.3298488096758L29.832589285714285,161.3298488096758L31.82142857142857,161.3298488096758L33.810267857142854,161.3298488096758L35.79910714285714,161.3298488096758L37.78794642857142,161.3298488096758L39.776785714285715,161.3298488096758L41.765625,161.3298488096758L43.754464285714285,161.3298488096758L45.74330357142857,161.3298488096758L47.732142857142854,161.3298488096758L49.720982142857146,161.3298488096758L51.70982142857143,161.3298488096758L53.698660714285715,161.3298488096758L55.6875,161.3298488096758L57.67633928571429,161.3298488096758L59.66517857142857,161.3298488096758L61.654017857142854,161.3298488096758L63.64285714285714,161.3298488096758L65.63169642857143,161.3298488096758L67.62053571428571,161.3298488096758L69.609375,161.3298488096758L71.59821428571428,161.3298488096758L73.58705357142857,161.3298488096758L75.57589285714285,161.3298488096758L77.56473214285714,161.3298488096758L79.55357142857143,161.3298488096758L81.54241071428572,161.3298488096758L83.53125,161.3298488096758L85.52008928571429,161.3298488096758L87.50892857142857,161.3298488096758L89.49776785714286,161.3298488096758L91.48660714285714,161.3298488096758L93.47544642857142,161.3298488096758L95.46428571428571,161.3298488096758L97.453125,161.3298488096758L99.44196428571429,161.3298488096758L101.43080357142857,161.3298488096758L103.41964285714286,161.3298488096758L105.40848214285714,161.3298488096758L107.39732142857143,161.3298488096758L109.38616071428571,161.3298488096758L111.375,161.3298488096758L113.36383928571429,161.3298488096758L115.35267857142858,161.3298488096758L117.34151785714286,161.3298488096758L119.33035714285714,161.3298488096758L121.31919642857143,161.3298488096758L123.30803571428571,161.3298488096758L125.296875,161.3298488096758L127.28571428571428,161.3298488096758L129.27455357142858,161.3298488096758L131.26339285714286,161.3298488096758L133.25223214285714,161.3298488096758L135.24107142857142,161.3298488096758L137.22991071428572,161.3298488096758L139.21875,161.3298488096758L141.20758928571428,161.3298488096758L143.19642857142856,161.3298488096758L145.18526785714286,161.3298488096758L147.17410714285714,161.3298488096758L149.16294642857142,161.3298488096758L151.1517857142857,161.3298488096758L153.140625,161.3298488096758L155.12946428571428,161.3298488096758L157.11830357142858,161.3298488096758L159.10714285714286,161.3298488096758L161.09598214285717,161.3298488096758L163.08482142857144,161.3298488096758L165.07366071428572,161.3298488096758L167.0625,161.3298488096758L169.05133928571428,161.3298488096758L171.04017857142858,161.3298488096758L173.02901785714286,161.3298488096758" style="fill: none;" fill="none"></path></g></g></g></g></g></g><g transform="translate(51, 177)" clip-path="url(#clip_1)"><clipPath id="clip_1"><rect width="278" height="23"></rect></clipPath><g><g><line x1="0" y1="0" x2="0" y2="5" style="visibility: inherit;" fill="rgb(0, 0, 0)" stroke="rgb(204, 204, 204)" stroke-width="1px"></line><line x1="19.888392857142858" y1="0" x2="19.888392857142858" y2="5" style="visibility: inherit;" fill="rgb(0, 0, 0)" stroke="rgb(204, 204, 204)" stroke-width="1px"></line><line x1="39.776785714285715" y1="0" x2="39.776785714285715" y2="5" style="visibility: inherit;" fill="rgb(0, 0, 0)" stroke="rgb(204, 204, 204)" stroke-width="1px"></line><line x1="59.66517857142857" y1="0" x2="59.66517857142857" y2="5" style="visibility: inherit;" fill="rgb(0, 0, 0)" stroke="rgb(204, 204, 204)" stroke-width="1px"></line><line x1="79.55357142857143" y1="0" x2="79.55357142857143" y2="5" style="visibility: inherit;" fill="rgb(0, 0, 0)" stroke="rgb(204, 204, 204)" stroke-width="1px"></line><line x1="99.44196428571429" y1="0" x2="99.44196428571429" y2="5" style="visibility: inherit;" fill="rgb(0, 0, 0)" stroke="rgb(204, 204, 204)" stroke-width="1px"></line><line x1="119.33035714285714" y1="0" x2="119.33035714285714" y2="5" style="visibility: inherit;" fill="rgb(0, 0, 0)" stroke="rgb(204, 204, 204)" stroke-width="1px"></line><line x1="139.21875" y1="0" x2="139.21875" y2="5" style="visibility: inherit;" fill="rgb(0, 0, 0)" stroke="rgb(204, 204, 204)" stroke-width="1px"></line><line x1="159.10714285714286" y1="0" x2="159.10714285714286" y2="5" style="visibility: inherit;" fill="rgb(0, 0, 0)" stroke="rgb(204, 204, 204)" stroke-width="1px"></line><line x1="178.99553571428572" y1="0" x2="178.99553571428572" y2="5" style="visibility: inherit;" fill="rgb(0, 0, 0)" stroke="rgb(204, 204, 204)" stroke-width="1px"></line><line x1="198.88392857142858" y1="0" x2="198.88392857142858" y2="5" style="visibility: inherit;" fill="rgb(0, 0, 0)" stroke="rgb(204, 204, 204)" stroke-width="1px"></line><line x1="218.77232142857142" y1="0" x2="218.77232142857142" y2="5" style="visibility: inherit;" fill="rgb(0, 0, 0)" stroke="rgb(204, 204, 204)" stroke-width="1px"></line><line x1="238.66071428571428" y1="0" x2="238.66071428571428" y2="5" style="visibility: inherit;" fill="rgb(0, 0, 0)" stroke="rgb(204, 204, 204)" stroke-width="1px"></line><line x1="258.54910714285717" y1="0" x2="258.54910714285717" y2="5" style="visibility: inherit;" fill="rgb(0, 0, 0)" stroke="rgb(204, 204, 204)" stroke-width="1px"></line><line x1="278.4375" y1="0" x2="278.4375" y2="5" style="visibility: inherit;" fill="rgb(0, 0, 0)" stroke="rgb(204, 204, 204)" stroke-width="1px"></line></g><g transform="translate(0, 8)"><text x="0" y="0" dx="0em" dy="0.95em" style="text-anchor: middle; visibility: hidden; font-family: Roboto, sans-serif; font-size: 12px; font-weight: 200;" fill="rgb(33, 33, 33)" stroke="none" stroke-width="1px">-10</text><text x="19.888392857142858" y="0" dx="0em" dy="0.95em" style="text-anchor: middle; visibility: inherit; font-family: Roboto, sans-serif; font-size: 12px; font-weight: 200;" fill="rgb(33, 33, 33)" stroke="none" stroke-width="1px">0</text><text x="39.776785714285715" y="0" dx="0em" dy="0.95em" style="text-anchor: middle; visibility: hidden; font-family: Roboto, sans-serif; font-size: 12px; font-weight: 200;" fill="rgb(33, 33, 33)" stroke="none" stroke-width="1px">10</text><text x="59.66517857142857" y="0" dx="0em" dy="0.95em" style="text-anchor: middle; visibility: inherit; font-family: Roboto, sans-serif; font-size: 12px; font-weight: 200;" fill="rgb(33, 33, 33)" stroke="none" stroke-width="1px">20</text><text x="79.55357142857143" y="0" dx="0em" dy="0.95em" style="text-anchor: middle; visibility: hidden; font-family: Roboto, sans-serif; font-size: 12px; font-weight: 200;" fill="rgb(33, 33, 33)" stroke="none" stroke-width="1px">30</text><text x="99.44196428571429" y="0" dx="0em" dy="0.95em" style="text-anchor: middle; visibility: inherit; font-family: Roboto, sans-serif; font-size: 12px; font-weight: 200;" fill="rgb(33, 33, 33)" stroke="none" stroke-width="1px">40</text><text x="119.33035714285714" y="0" dx="0em" dy="0.95em" style="text-anchor: middle; visibility: hidden; font-family: Roboto, sans-serif; font-size: 12px; font-weight: 200;" fill="rgb(33, 33, 33)" stroke="none" stroke-width="1px">50</text><text x="139.21875" y="0" dx="0em" dy="0.95em" style="text-anchor: middle; visibility: inherit; font-family: Roboto, sans-serif; font-size: 12px; font-weight: 200;" fill="rgb(33, 33, 33)" stroke="none" stroke-width="1px">60</text><text x="159.10714285714286" y="0" dx="0em" dy="0.95em" style="text-anchor: middle; visibility: hidden; font-family: Roboto, sans-serif; font-size: 12px; font-weight: 200;" fill="rgb(33, 33, 33)" stroke="none" stroke-width="1px">70</text><text x="178.99553571428572" y="0" dx="0em" dy="0.95em" style="text-anchor: middle; visibility: inherit; font-family: Roboto, sans-serif; font-size: 12px; font-weight: 200;" fill="rgb(33, 33, 33)" stroke="none" stroke-width="1px">80</text><text x="198.88392857142858" y="0" dx="0em" dy="0.95em" style="text-anchor: middle; visibility: hidden; font-family: Roboto, sans-serif; font-size: 12px; font-weight: 200;" fill="rgb(33, 33, 33)" stroke="none" stroke-width="1px">90</text><text x="218.77232142857142" y="0" dx="0em" dy="0.95em" style="text-anchor: middle; visibility: inherit; font-family: Roboto, sans-serif; font-size: 12px; font-weight: 200;" fill="rgb(33, 33, 33)" stroke="none" stroke-width="1px">100</text><text x="238.66071428571428" y="0" dx="0em" dy="0.95em" style="text-anchor: middle; visibility: hidden; font-family: Roboto, sans-serif; font-size: 12px; font-weight: 200;" fill="rgb(33, 33, 33)" stroke="none" stroke-width="1px">110</text><text x="258.54910714285717" y="0" dx="0em" dy="0.95em" style="text-anchor: middle; visibility: inherit; font-family: Roboto, sans-serif; font-size: 12px; font-weight: 200;" fill="rgb(33, 33, 33)" stroke="none" stroke-width="1px">120</text><text x="278.4375" y="0" dx="0em" dy="0.95em" style="text-anchor: middle; visibility: hidden; font-family: Roboto, sans-serif; font-size: 12px; font-weight: 200;" fill="rgb(33, 33, 33)" stroke="none" stroke-width="1px">130</text></g><line x1="0" y1="0" x2="278.4375" y2="0" fill="rgb(0, 0, 0)" stroke="rgb(204, 204, 204)" stroke-width="1px"></line></g></g></g></g></svg>