<svg viewBox="0 0 330 200" xmlns="http://www.w3.org/2000/svg"><g><g><g><g><g><line x1="61.953125" y1="177" x2="56.953125" y2="177" style="visibility: inherit;" fill="rgb(0, 0, 0)" stroke="rgb(204, 204, 204)" stroke-width="1px"></line><line x1="61.953125" y1="160.90909090909074" x2="56.953125" y2="160.90909090909074" style="visibility: inherit;" fill="rgb(0, 0, 0)" stroke="rgb(204, 204, 204)" stroke-width="1px"></line><line x1="61.953125" y1="144.8181818181815" x2="56.953125" y2="144.8181818181815" style="visibility: inherit;" fill="rgb(0, 0, 0)" stroke="rgb(204, 204, 204)" stroke-width="1px"></line><line x1="61.953125" y1="128.72727272727224" x2="56.953125" y2="128.72727272727224" style="visibility: inherit;" fill="rgb(0, 0, 0)" stroke="rgb(204, 204, 204)" stroke-width="1px"></line><line x1="61.953125" y1="112.63636363636299" x2="56.953125" y2="112.63636363636299" style="visibility: inherit;" fill="rgb(0, 0, 0)" stroke="rgb(204, 204, 204)" stroke-width="1px"></line><line x1="61.953125" y1="96.54545454545374" x2="56.953125" y2="96.54545454545374" style="visibility: inherit;" fill="rgb(0, 0, 0)" stroke="rgb(204, 204, 204)" stroke-width="1px"></line><line x1="61.953125" y1="80.45454545454447" x2="56.953125" y2="80.45454545454447" style="visibility: inherit;" fill="rgb(0, 0, 0)" stroke="rgb(204, 204, 204)" stroke-width="1px"></line><line x1="61.953125" y1="64.36363636363522" x2="56.953125" y2="64.36363636363522" style="visibility: inherit;" fill="rgb(0, 0, 0)" stroke="rgb(204, 204, 204)" stroke-width="1px"></line><line x1="61.953125" y1="48.272727272727764" x2="56.953125" y2="48.272727272727764" style="visibility: inherit;" fill="rgb(0, 0, 0)" stroke="rgb(204, 204, 204)" stroke-width="1px"></line><line x1="61.953125" y1="32.18181818181851" x2="56.953125" y2="32.18181818181851" style="visibility: inherit;" fill="rgb(0, 0, 0)" stroke="rgb(204, 204, 204)" stroke-width="1px"></line><line x1="61.953125" y1="16.090909090909253" x2="56.953125" y2="16.090909090909253" style="visibility: inherit;" fill="rgb(0, 0, 0)" stroke="rgb(204, 204, 204)" stroke-width="1px"></line><line x1="61.953125" y1="0" x2="56.953125" y2="0" style="visibility: inherit;" fill="rgb(0, 0, 0)" stroke="rgb(204, 204, 204)" stroke-width="1px"></line></g><g transform="translate(51.953125, 0)"><text x="0" y="177" dx="0em" dy="0.3em" style="text-anchor: end; visibility: hidden; font-family: Roboto, sans-serif; font-size: 12px; font-weight: 200;" fill="rgb(33, 33, 33)" stroke="none" stroke-width="1px">0.68</text><text x="0" y="160.90909090909074" dx="0em" dy="0.3em" style="text-anchor: end; visibility: inherit; font-family: Roboto, sans-serif; font-size: 12px; font-weight: 200;" fill="rgb(33, 33, 33)" stroke="none" stroke-width="1px">0.681</text><text x="0" y="144.8181818181815" dx="0em" dy="0.3em" style="text-anchor: end; visibility: hidden; font-family: Roboto, sans-serif; font-size: 12px; font-weight: 200;" fill="rgb(33, 33, 33)" stroke="none" stroke-width="1px">0.682</text><text x="0" y="128.72727272727224" dx="0em" dy="0.3em" style="text-anchor: end; visibility: inherit; font-family: Roboto, sans-serif; font-size: 12px; font-weight: 200;" fill="rgb(33, 33, 33)" stroke="none" stroke-width="1px">0.683</text><text x="0" y="112.63636363636299" dx="0em" dy="0.3em" style="text-anchor: end; visibility: hidden; font-family: Roboto, sans-serif; font-size: 12px; font-weight: 200;" fill="rgb(33, 33, 33)" stroke="none" stroke-width="1px">0.684</text><text x="0" y="96.54545454545374" dx="0em" dy="0.3em" style="text-anchor: end; visibility: inherit; font-family: Roboto, sans-serif; font-size: 12px; font-weight: 200;" fill="rgb(33, 33, 33)" stroke="none" stroke-width="1px">0.685</text><text x="0" y="80.45454545454447" dx="0em" dy="0.3em" style="text-anchor: end; visibility: hidden; font-family: Roboto, sans-serif; font-size: 12px; font-weight: 200;" fill="rgb(33, 33, 33)" stroke="none" stroke-width="1px">0.686</text><text x="0" y="64.36363636363522" dx="0em" dy="0.3em" style="text-anchor: end; visibility: inherit; font-family: Roboto, sans-serif; font-size: 12px; font-weight: 200;" fill="rgb(33, 33, 33)" stroke="none" stroke-width="1px">0.687</text><text x="0" y="48.272727272727764" dx="0em" dy="0.3em" style="text-anchor: end; visibility: hidden; font-family: Roboto, sans-serif; font-size: 12px; font-weight: 200;" fill="rgb(33, 33, 33)" stroke="none" stroke-width="1px">0.688</text><text x="0" y="32.18181818181851" dx="0em" dy="0.3em" style="text-anchor: end; visibility: inherit; font-family: Roboto, sans-serif; font-size: 12px; font-weight: 200;" fill="rgb(33, 33, 33)" stroke="none" stroke-width="1px">0.689</text><text x="0" y="16.090909090909253" dx="0em" dy="0.3em" style="text-anchor: end; visibility: hidden; font-family: Roboto, sans-serif; font-size: 12px; font-weight: 200;" fill="rgb(33, 33, 33)" stroke="none" stroke-width="1px">0.69</text><text x="0" y="0" dx="0em" dy="0.3em" style="text-anchor: end; visibility: hidden; font-family: Roboto, sans-serif; font-size: 12px; font-weight: 200;" fill="rgb(33, 33, 33)" stroke="none" stroke-width="1px">0.691</text></g><line x1="61.953125" y1="0" x2="61.953125" y2="177" fill="rgb(0, 0, 0)" stroke="rgb(204, 204, 204)" stroke-width="1px"></line></g></g><g transform="translate(61, 0)" clip-path="url(#clip_0)"><clipPath id="clip_0"><rect width="268" height="177"></rect></clipPath><g><g><g><line x1="0" y1="0" x2="0" y2="177" fill="rgb(0, 0, 0)" stroke="rgb(66, 66, 66)" stroke-width="1px" opacity="0.25"></line><line x1="19.146205357142858" y1="0" x2="19.146205357142858" y2="177" fill="rgb(0, 0, 0)" stroke="rgb(66, 66, 66)" stroke-width="1px" opacity="0.25"></line><line x1="38.292410714285715" y1="0" x2="38.292410714285715" y2="177" fill="rgb(0, 0, 0)" stroke="rgb(66, 66, 66)" stroke-width="1px" opacity="0.25"></line><line x1="57.43861607142857" y1="0" x2="57.43861607142857" y2="177" fill="rgb(0, 0, 0)" stroke="rgb(66, 66, 66)" stroke-width="1px" opacity="0.25"></line><line x1="76.58482142857143" y1="0" x2="76.58482142857143" y2="177" fill="rgb(0, 0, 0)" stroke="rgb(66, 66, 66)" stroke-width="1px" opacity="0.25"></line><line x1="95.73102678571429" y1="0" x2="95.73102678571429" y2="177" fill="rgb(0, 0, 0)" stroke="rgb(66, 66, 66)" stroke-width="1px" opacity="0.25"></line><line x1="114.87723214285714" y1="0" x2="114.87723214285714" y2="177" fill="rgb(0, 0, 0)" stroke="rgb(66, 66, 66)" stroke-width="1px" opacity="0.25"></line><line x1="134.0234375" y1="0" x2="134.0234375" y2="177" fill="rgb(0, 0, 0)" stroke="rgb(66, 66, 66)" stroke-width="1px" opacity="0.25"></line><line x1="153.16964285714286" y1="0" x2="153.16964285714286" y2="177" fill="rgb(0, 0, 0)" stroke="rgb(66, 66, 66)" stroke-width="1px" opacity="0.25"></line><line x1="172.31584821428572" y1="0" x2="172.31584821428572" y2="177" fill="rgb(0, 0, 0)" stroke="rgb(66, 66, 66)" stroke-width="1px" opacity="0.25"></line><line x1="191.46205357142858" y1="0" x2="191.46205357142858" y2="177" fill="rgb(0, 0, 0)" stroke="rgb(66, 66, 66)" stroke-width="1px" opacity="0.25"></line><line x1="210.60825892857142" y1="0" x2="210.60825892857142" y2="177" fill="rgb(0, 0, 0)" stroke="rgb(66, 66, 66)" stroke-width="1px" opacity="0.25"></line><line x1="229.75446428571428" y1="0" x2="229.75446428571428" y2="177" fill="rgb(0, 0, 0)" stroke="rgb(66, 66, 66)" stroke-width="1px" opacity="0.25"></line><line x1="248.90066964285714" y1="0" x2="248.90066964285714" y2="177" fill="rgb(0, 0, 0)" stroke="rgb(66, 66, 66)" stroke-width="1px" opacity="0.25"></line><line x1="268.046875" y1="0" x2="268.046875" y2="177" fill="rgb(0, 0, 0)" stroke="rgb(66, 66, 66)" stroke-width="1px" opacity="0.25"></line></g><g><line x1="0" y1="177" x2="268.046875" y2="177" fill="rgb(0, 0, 0)" stroke="rgb(66, 66, 66)" stroke-width="1px" opacity="0.25"></line><line x1="0" y1="160.90909090909074" x2="268.046875" y2="160.90909090909074" fill="rgb(0, 0, 0)" stroke="rgb(66, 66, 66)" stroke-width="1px" opacity="0.25"></line><line x1="0" y1="144.8181818181815" x2="268.046875" y2="144.8181818181815" fill="rgb(0, 0, 0)" stroke="rgb(66, 66, 66)" stroke-width="1px" opacity="0.25"></line><line x1="0" y1="128.72727272727224" x2="268.046875" y2="128.72727272727224" fill="rgb(0, 0, 0)" stroke="rgb(66, 66, 66)" stroke-width="1px" opacity="0.25"></line><line x1="0" y1="112.63636363636299" x2="268.046875" y2="112.63636363636299" fill="rgb(0, 0, 0)" stroke="rgb(66, 66, 66)" stroke-width="1px" opacity="0.25"></line><line x1="0" y1="96.54545454545374" x2="268.046875" y2="96.54545454545374" fill="rgb(0, 0, 0)" stroke="rgb(66, 66, 66)" stroke-width="1px" opacity="0.25"></line><line x1="0" y1="80.45454545454447" x2="268.046875" y2="80.45454545454447" fill="rgb(0, 0, 0)" stroke="rgb(66, 66, 66)" stroke-width="1px" opacity="0.25"></line><line x1="0" y1="64.36363636363522" x2="268.046875" y2="64.36363636363522" fill="rgb(0, 0, 0)" stroke="rgb(66, 66, 66)" stroke-width="1px" opacity="0.25"></line><line x1="0" y1="48.272727272727764" x2="268.046875" y2="48.272727272727764" fill="rgb(0, 0, 0)" stroke="rgb(66, 66, 66)" stroke-width="1px" opacity="0.25"></line><line x1="0" y1="32.18181818181851" x2="268.046875" y2="32.18181818181851" fill="rgb(0, 0, 0)" stroke="rgb(66, 66, 66)" stroke-width="1px" opacity="0.25"></line><line x1="0" y1="16.090909090909253" x2="268.046875" y2="16.090909090909253" fill="rgb(0, 0, 0)" stroke="rgb(66, 66, 66)" stroke-width="1px" opacity="0.25"></line><line x1="0" y1="0" x2="268.046875" y2="0" fill="rgb(0, 0, 0)" stroke="rgb(66, 66, 66)" stroke-width="1px" opacity="0.25"></line></g></g></g><g><g><line x1="0" y1="11118.818181818282" x2="268.046875" y2="11118.818181818282" fill="rgb(0, 0, 0)" stroke="rgb(153, 153, 153)" stroke-width="1.5px"></line></g></g><g><g><line x1="19.146205357142858" y1="0" x2="19.146205357142858" y2="177" fill="rgb(0, 0, 0)" stroke="rgb(153, 153, 153)" stroke-width="1.5px"></line></g></g><g><g><g><g><g><path stroke="rgb(0, 119, 187)" stroke-width="2px" d="M19.146205357142858,3762.3083743832653L21.060825892857142,1.9912624873889957L22.975446428571427,-1636.595473573928L36.37779017857142,-82.28594345157629L38.292410714285715,8.516579914036715L40.20703125,38.6771986109802L42.121651785714285,75.05914700824205L44.03627232142857,107.2437889593865L45.950892857142854,108.13283415672738L47.865513392857146,122.49080642244732L49.78013392857143,137.05882124301039L51.694754464285715,138.7299700664858L53.609375,138.0340854907835L55.52399553571429,143.17645500436367L57.43861607142857,149.99501156133664L59.353236607142854,151.14428123837982L61.26785714285714,148.72059315725687L63.18247767857143,149.4941841504338L65.09709821428571,153.36235867145666L67.01171875,155.5620267938232L68.92633928571428,154.70698393340854L70.84095982142857,153.5387060915878L72.75558035714285,154.41717464904653L74.67020089285714,156.58200300943628L76.58482142857143,157.66491196503443L78.49944196428572,157.01949806357266L80.4140625,156.35526370690894L82.32868303571429,157.00788898417113L84.24330357142857,158.25881141008247L86.15792410714286,158.75117703500982L88.07254464285714,158.3414712872175L89.98716517857142,157.9751857689054L91.90178571428571,158.3247320176554L93.81640625,159.04814993529857L95.73102678571429,159.37823501260164L97.64564732142857,159.14622879306725L99.56026785714286,158.90651212332352L101.47488839285714,159.1045028384374L103.38950892857143,159.53365973658308L105.30412946428571,159.72516828250917L107.21875,159.5895583392181L109.13337053571429,159.44604315199865L111.04799107142858,159.55558899544857L112.96261160714286,159.80891507676375L114.87723214285714,159.92868520342523L116.79185267857143,159.8478596864804L118.70647321428571,159.76138429666193L120.62109375,159.8322629565933L122.53571428571428,159.98412674548788L124.45033482142857,160.04685586837496L126.36495535714286,159.99280405891142L128.27957589285714,159.94656203517735L130.19419642857142,159.99592789174466L132.10881696428572,160.08616207825884L134.0234375,160.11574981140456L135.93805803571428,160.0794096105753L137.85267857142856,160.0579891272449L139.76729910714286,160.0973114921227L141.68191964285714,160.1500613358319L143.59654017857142,160.15715846329212L145.5111607142857,160.13149304065084L147.42578125,160.1260683534372L149.34040178571428,160.15503906323707L151.25502232142858,160.1827796926585L153.16964285714286,160.18139312340637L155.08426339285717,160.16521569512855L156.99888392857144,160.1689365390471L158.91350446428572,160.18919999230462L160.828125,160.20097442708916L162.74274553571428,160.1942281499061L164.65736607142858,160.18749492341928L166.57198660714286,160.19458046540436L168.48660714285714,160.20803908263235L170.40122767857142,160.2107433326141L172.31584821428572,160.20430950207043L174.23046875,160.20275102675447L176.14508928571428,160.210639596434L178.05970982142856,160.2165236497459L179.97433035714283,160.2146831613773L181.88895089285714,160.21127704534808L183.80357142857142,160.21383702174776L185.71819196428572,160.2195930164373L187.6328125,160.2207447902426L189.5474330357143,160.21875039434883L191.46205357142858,160.2183210311475L193.37667410714286,160.22151614774114L195.29129464285714,160.22343321769767L197.20591517857144,160.22189799949425L199.12053571428572,160.22097686857256L201.03515625,160.22195873869194L202.94977678571428,160.22484968377273L204.86439732142856,160.22504970214987L206.77901785714286,160.22401880166944L208.69363839285714,160.22340026138116L210.60825892857142,160.2249473230499L212.5228794642857,160.2254919228822L214.4375,160.2242841341099L216.35212053571428,160.22317582367904L218.26674107142858,160.22481266043005L220.18136160714286,160.22579476248063L222.09598214285717,160.22523311220536L224.01060267857144,160.22527975920835L225.92522321428572,160.22569138457658L227.83984375,160.22593835979856L229.75446428571428,160.22608654493214L231.66908482142858,160.22579181884373L233.58370535714286,160.22561498319138L235.49832589285714,160.2262761561371L237.41294642857142,160.22628922273452L239.32756696428572,160.2262970626944L241.2421875,160.22630176667036L243.15680803571428,160.22707186339088L245.07142857142856,160.22715028425569L246.98604910714283,160.22643006243857L248.90066964285714,160.2263815665172L250.81529017857142,160.2263524689626" style="fill: none;" fill="none"></path></g><g><path stroke="rgb(255, 112, 67)" stroke-width="2px" d="M19.146205357142858,12.847295197572842L21.060825892857142,30.059416521680493L22.975446428571427,35.328433253549626L24.890066964285715,37.65299945878634L26.8046875,38.83867340802295L28.719308035714285,39.48818330502471L30.63392857142857,39.85793643056801L32.548549107142854,40.07305067811835L34.46316964285714,40.199783306229925L36.37779017857142,40.27500051992263L38.292410714285715,40.31983871004318L40.20703125,40.34663728715268L42.121651785714285,40.36267905040334L44.03627232142857,40.372290688778804L45.950892857142854,40.378052849006735L47.865513392857146,40.381508410712634L49.78013392857143,40.38358112372677L51.694754464285715,40.38482452697422L53.609375,40.38557048809729L55.52399553571429,40.38601803567807L57.43861607142857,40.38628655375507L59.353236607142854,40.386447660830086L61.26785714285714,40.386544323719555L63.18247767857143,40.38660232096515L65.09709821428571,40.3866371191328L67.01171875,40.386657997975156L68.92633928571428,40.386670525252335L70.84095982142857,40.38667804161473L72.75558035714285,40.386682551426794L74.67020089285714,40.38668525731403L76.58482142857143,40.386686880846746L78.49944196428572,40.38668785496744L80.4140625,40.38668843943663L82.32868303571429,40.38668879012029L84.24330357142857,40.38668900052835L86.15792410714286,40.386689126774975L88.07254464285714,40.38668920252223L89.98716517857142,40.38668924797129L91.90178571428571,40.386689275239675L93.81640625,40.38668929159997L95.73102678571429,40.3866893014165L97.64564732142857,40.38668930730823L99.56026785714286,40.386689310841824L101.47488839285714,40.38668931296234L103.38950892857143,40.38668931423607L105.30412946428571,40.38668931499888L107.21875,40.38668931545622L109.13337053571429,40.38668931572955L111.04799107142858,40.3866893158939L112.96261160714286,40.38668931599395L114.87723214285714,40.38668931605469L116.79185267857143,40.38668931609042L118.70647321428571,40.386689316111855L120.62109375,40.386689316124354L122.53571428571428,40.38668931613151L124.45033482142857,40.38668931613685L126.36495535714286,40.386689316140426L128.27957589285714,40.38668931614222L130.19419642857142,40.386689316144L132.10881696428572,40.386689316144L134.0234375,40.38668931614222L135.93805803571428,40.386689316144L137.85267857142856,40.386689316144L139.76729910714286,40.386689316144L141.68191964285714,40.386689316144L143.59654017857142,40.38668931614222L145.5111607142857,40.38668931614222L147.42578125,40.38668931614222L149.34040178571428,40.38668931614222L151.25502232142858,40.38668931614222L153.16964285714286,40.386689316144L155.08426339285717,40.386689316144L156.99888392857144,40.386689316144L158.91350446428572,40.38668931614579L160.828125,40.38668931614579L162.74274553571428,40.38668931614579L164.65736607142858,40.38668931614579L166.57198660714286,40.38668931614579" style="fill: none;" fill="none"></path></g></g></g></g><g opacity="0.2"><g><g><g><path stroke="rgb(0, 119, 187)" stroke-width="2px" d="M32.548549107142854,-55.08813363855672L34.46316964285714,108.54270952398143L36.37779017857142,106.7492057626899L38.292410714285715,143.89679275859535L40.20703125,83.75399390133938L42.121651785714285,129.51327623020555L44.03627232142857,155.45769882202208L45.950892857142854,109.46535691348005L47.865513392857146,144.01763846657542L49.78013392857143,158.9046787782155L51.694754464285715,141.23626899719284L53.609375,136.99036463824228L55.52399553571429,150.8895392417913L57.43861607142857,160.22247245095056L59.353236607142854,152.86814793673486L61.26785714285714,145.08510888706604L63.18247767857143,150.6545614762745L65.09709821428571,159.16459295966473L67.01171875,158.86151959679407L68.92633928571428,153.42442183061135L70.84095982142857,151.78629112243706L72.75558035714285,155.73487667603985L74.67020089285714,159.8292443535551L76.58482142857143,159.2892750393267L78.49944196428572,156.05137733979717L80.4140625,155.35891225121296L82.32868303571429,157.98682685331926L84.24330357142857,160.1351949951872L86.15792410714286,159.48972545970634L88.07254464285714,157.72691267187005L89.98716517857142,157.42575749484038L91.90178571428571,158.84905138882786L93.81640625,160.13327680934623L95.73102678571429,159.87336262789702L97.64564732142857,158.7982194640426L99.56026785714286,158.54693711887768L101.47488839285714,159.40148891102245L103.38950892857143,160.17739508368817L105.30412946428571,160.01243110136616L107.21875,159.38614342429486L109.13337053571429,159.2307703711776L111.04799107142858,159.71990776062074L112.96261160714286,160.18890419873387L114.87723214285714,160.1083403934138L116.79185267857143,159.7266214110641L118.70647321428571,159.6316712119369L120.62109375,159.93858094648945L122.53571428571428,160.21192242882532L124.45033482142857,160.14094955271005L126.36495535714286,159.9117263447161L128.27957589285714,159.87719899957892L130.19419642857142,160.06997667659476L132.10881696428572,160.22151335803008L134.0234375,160.16013141111958L135.93805803571428,160.02489930933237L137.85267857142856,160.02585840225282L139.76729910714286,160.15629503943768L141.68191964285714,160.22918610139388L143.59654017857142,160.16780415448338L145.5111607142857,160.09299490668622L147.42578125,160.1179313226186L149.34040178571428,160.19849512793866L151.25502232142858,160.2243906367915L153.16964285714286,160.1793132695291L155.08426339285717,160.14094955271005L156.99888392857144,160.17451780492672L158.91350446428572,160.21959517218914L160.828125,160.21863607926863L162.74274553571428,160.18410873413148L164.65736607142858,160.17739508368817L166.57198660714286,160.20520877838197L168.48660714285714,160.22822700847343L170.40122767857142,160.21479970758676L172.31584821428572,160.19465875625673L174.23046875,160.2004133137796L176.14508928571428,160.22247245095056L178.05970982142856,160.225349729712L179.97433035714283,160.21192242882532L181.88895089285714,160.20616787130245L183.80357142857142,160.21767698634818L185.71819196428572,160.22822700847343L187.6328125,160.22247245095056L189.5474330357143,160.21575880050722L191.46205357142858,160.21767698634818L193.37667410714286,160.22630882263246L195.29129464285714,160.22630882263246L197.20591517857144,160.21959517218914L199.12053571428572,160.21959517218914L201.03515625,160.22343154387104L202.94977678571428,160.22918610139388L204.86439732142856,160.225349729712L206.77901785714286,160.22247245095056L208.69363839285714,160.22247245095056L210.60825892857142,160.22726791555294L212.5228794642857,160.22630882263246L214.4375,160.22247245095056L216.35212053571428,160.22151335803008L218.26674107142858,160.22726791555294L220.18136160714286,160.22726791555294L222.09598214285717,160.2243906367915L224.01060267857144,160.225349729712L225.92522321428572,160.22630882263246L227.83984375,160.22630882263246L229.75446428571428,160.22630882263246L231.66908482142858,160.225349729712L233.58370535714286,160.225349729712L235.49832589285714,160.22726791555294L237.41294642857142,160.22630882263246L239.32756696428572,160.22630882263246L241.2421875,160.22630882263246L243.15680803571428,160.22822700847343L245.07142857142856,160.22726791555294L246.98604910714283,160.225349729712L248.90066964285714,160.22630882263246L250.81529017857142,160.22630882263246" style="fill: none;" fill="none"></path></g><g><path stroke="rgb(255, 112, 67)" stroke-width="2px" d="M19.146205357142858,12.847295197572842L21.060825892857142,40.38668931614222L22.975446428571427,40.38668931614222L24.890066964285715,40.38668931614222L26.8046875,40.38668931614222L28.719308035714285,40.38668931614222L30.63392857142857,40.38668931614222L32.548549107142854,40.38668931614222L34.46316964285714,40.38668931614222L36.37779017857142,40.38668931614222L38.292410714285715,40.38668931614222L40.20703125,40.38668931614222L42.121651785714285,40.38668931614222L44.03627232142857,40.38668931614222L45.950892857142854,40.38668931614222L47.865513392857146,40.38668931614222L49.78013392857143,40.38668931614222L51.694754464285715,40.38668931614222L53.609375,40.38668931614222L55.52399553571429,40.38668931614222L57.43861607142857,40.38668931614222L59.353236607142854,40.38668931614222L61.26785714285714,40.38668931614222L63.18247767857143,40.38668931614222L65.09709821428571,40.38668931614222L67.01171875,40.38668931614222L68.92633928571428,40.38668931614222L70.84095982142857,40.38668931614222L72.75558035714285,40.38668931614222L74.67020089285714,40.38668931614222L76.58482142857143,40.38668931614222L78.49944196428572,40.38668931614222L80.4140625,40.38668931614222L82.32868303571429,40.38668931614222L84.24330357142857,40.38668931614222L86.15792410714286,40.38668931614222L88.07254464285714,40.38668931614222L89.98716517857142,40.38668931614222L91.90178571428571,40.38668931614222L93.81640625,40.38668931614222L95.73102678571429,40.38668931614222L97.64564732142857,40.38668931614222L99.56026785714286,40.38668931614222L101.47488839285714,40.38668931614222L103.38950892857143,40.38668931614222L105.30412946428571,40.38668931614222L107.21875,40.38668931614222L109.13337053571429,40.38668931614222L111.04799107142858,40.38668931614222L112.96261160714286,40.38668931614222L114.87723214285714,40.38668931614222L116.79185267857143,40.38668931614222L118.70647321428571,40.38668931614222L120.62109375,40.38668931614222L122.53571428571428,40.38668931614222L124.45033482142857,40.38668931614222L126.36495535714286,40.38668931614222L128.27957589285714,40.38668931614222L130.19419642857142,40.38668931614222L132.10881696428572,40.38668931614222L134.0234375,40.38668931614222L135.93805803571428,40.38668931614222L137.85267857142856,40.38668931614222L139.76729910714286,40.38668931614222L141.68191964285714,40.38668931614222L143.59654017857142,40.38668931614222L145.5111607142857,40.38668931614222L147.42578125,40.38668931614222L149.34040178571428,40.38668931614222L151.25502232142858,40.38668931614222L153.16964285714286,40.38668931614222L155.08426339285717,40.38668931614222L156.99888392857144,40.38668931614222L158.91350446428572,40.38668931614222L160.828125,40.38668931614222L162.74274553571428,40.38668931614222L164.65736607142858,40.38668931614222L166.57198660714286,40.38668931614222" style="fill: none;" fill="none"></path></g></g></g></g></g></g><g transform="translate(61, 177)" clip-path="url(#clip_1)"><clipPath id="clip_1"><rect width="268" height="23"></rect></clipPath><g><g><line x1="0" y1="0" x2="0" y2="5" style="visibility: inherit;" fill="rgb(0, 0, 0)" stroke="rgb(204, 204, 204)" stroke-width="1px"></line><line x1="19.146205357142858" y1="0" x2="19.146205357142858" y2="5" style="visibility: inherit;" fill="rgb(0, 0, 0)" stroke="rgb(204, 204, 204)" stroke-width="1px"></line><line x1="38.292410714285715" y1="0" x2="38.292410714285715" y2="5" style="visibility: inherit;" fill="rgb(0, 0, 0)" stroke="rgb(204, 204, 204)" stroke-width="1px"></line><line x1="57.43861607142857" y1="0" x2="57.43861607142857" y2="5" style="visibility: inherit;" fill="rgb(0, 0, 0)" stroke="rgb(204, 204, 204)" stroke-width="1px"></line><line x1="76.58482142857143" y1="0" x2="76.58482142857143" y2="5" style="visibility: inherit;" fill="rgb(0, 0, 0)" stroke="rgb(204, 204, 204)" stroke-width="1px"></line><line x1="95.73102678571429" y1="0" x2="95.73102678571429" y2="5" style="visibility: inherit;" fill="rgb(0, 0, 0)" stroke="rgb(204, 204, 204)" stroke-width="1px"></line><line x1="114.87723214285714" y1="0" x2="114.87723214285714" y2="5" style="visibility: inherit;" fill="rgb(0, 0, 0)" stroke="rgb(204, 204, 204)" stroke-width="1px"></line><line x1="134.0234375" y1="0" x2="134.0234375" y2="5" style="visibility: inherit;" fill="rgb(0, 0, 0)" stroke="rgb(204, 204, 204)" stroke-width="1px"></line><line x1="153.16964285714286" y1="0" x2="153.16964285714286" y2="5" style="visibility: inherit;" fill="rgb(0, 0, 0)" stroke="rgb(204, 204, 204)" stroke-width="1px"></line><line x1="172.31584821428572" y1="0" x2="172.31584821428572" y2="5" style="visibility: inherit;" fill="rgb(0, 0, 0)" stroke="rgb(204, 204, 204)" stroke-width="1px"></line><line x1="191.46205357142858" y1="0" x2="191.46205357142858" y2="5" style="visibility: inherit;" fill="rgb(0, 0, 0)" stroke="rgb(204, 204, 204)" stroke-width="1px"></line><line x1="210.60825892857142" y1="0" x2="210.60825892857142" y2="5" style="visibility: inherit;" fill="rgb(0, 0, 0)" stroke="rgb(204, 204, 204)" stroke-width="1px"></line><line x1="229.75446428571428" y1="0" x2="229.75446428571428" y2="5" style="visibility: inherit;" fill="rgb(0, 0, 0)" stroke="rgb(204, 204, 204)" stroke-width="1px"></line><line x1="248.90066964285714" y1="0" x2="248.90066964285714" y2="5" style="visibility: inherit;" fill="rgb(0, 0, 0)" stroke="rgb(204, 204, 204)" stroke-width="1px"></line><line x1="268.046875" y1="0" x2="268.046875" y2="5" style="visibility: inherit;" fill="rgb(0, 0, 0)" stroke="rgb(204, 204, 204)" stroke-width="1px"></line></g><g transform="translate(0, 8)"><text x="0" y="0" dx="0em" dy="0.95em" style="text-anchor: middle; visibility: hidden; font-family: Roboto, sans-serif; font-size: 12px; font-weight: 200;" fill="rgb(33, 33, 33)" stroke="none" stroke-width="1px">-10</text><text x="19.146205357142858" y="0" dx="0em" dy="0.95em" style="text-anchor: middle; visibility: inherit; font-family: Roboto, sans-serif; font-size: 12px; font-weight: 200;" fill="rgb(33, 33, 33)" stroke="none" stroke-width="1px">0</text><text x="38.292410714285715" y="0" dx="0em" dy="0.95em" style="text-anchor: middle; visibility: hidden; font-family: Roboto, sans-serif; font-size: 12px; font-weight: 200;" fill="rgb(33, 33, 33)" stroke="none" stroke-width="1px">10</text><text x="57.43861607142857" y="0" dx="0em" dy="0.95em" style="text-anchor: middle; visibility: inherit; font-family: Roboto, sans-serif; font-size: 12px; font-weight: 200;" fill="rgb(33, 33, 33)" stroke="none" stroke-width="1px">20</text><text x="76.58482142857143" y="0" dx="0em" dy="0.95em" style="text-anchor: middle; visibility: hidden; font-family: Roboto, sans-serif; font-size: 12px; font-weight: 200;" fill="rgb(33, 33, 33)" stroke="none" stroke-width="1px">30</text><text x="95.73102678571429" y="0" dx="0em" dy="0.95em" style="text-anchor: middle; visibility: inherit; font-family: Roboto, sans-serif; font-size: 12px; font-weight: 200;" fill="rgb(33, 33, 33)" stroke="none" stroke-width="1px">40</text><text x="114.87723214285714" y="0" dx="0em" dy="0.95em" style="text-anchor: middle; visibility: hidden; font-family: Roboto, sans-serif; font-size: 12px; font-weight: 200;" fill="rgb(33, 33, 33)" stroke="none" stroke-width="1px">50</text><text x="134.0234375" y="0" dx="0em" dy="0.95em" style="text-anchor: middle; visibility: inherit; font-family: Roboto, sans-serif; font-size: 12px; font-weight: 200;" fill="rgb(33, 33, 33)" stroke="none" stroke-width="1px">60</text><text x="153.16964285714286" y="0" dx="0em" dy="0.95em" style="text-anchor: middle; visibility: hidden; font-family: Roboto, sans-serif; font-size: 12px; font-weight: 200;" fill="rgb(33, 33, 33)" stroke="none" stroke-width="1px">70</text><text x="172.31584821428572" y="0" dx="0em" dy="0.95em" style="text-anchor: middle; visibility: inherit; font-family: Roboto, sans-serif; font-size: 12px; font-weight: 200;" fill="rgb(33, 33, 33)" stroke="none" stroke-width="1px">80</text><text x="191.46205357142858" y="0" dx="0em" dy="0.95em" style="text-anchor: middle; visibility: hidden; font-family: Roboto, sans-serif; font-size: 12px; font-weight: 200;" fill="rgb(33, 33, 33)" stroke="none" stroke-width="1px">90</text><text x="210.60825892857142" y="0" dx="0em" dy="0.95em" style="text-anchor: middle; visibility: inherit; font-family: Roboto, sans-serif; font-size: 12px; font-weight: 200;" fill="rgb(33, 33, 33)" stroke="none" stroke-width="1px">100</text><text x="229.75446428571428" y="0" dx="0em" dy="0.95em" style="text-anchor: middle; visibility: hidden; font-family: Roboto, sans-serif; font-size: 12px; font-weight: 200;" fill="rgb(33, 33, 33)" stroke="none" stroke-width="1px">110</text><text x="248.90066964285714" y="0" dx="0em" dy="0.95em" style="text-anchor: middle; visibility: inherit; font-family: Roboto, sans-serif; font-size: 12px; font-weight: 200;" fill="rgb(33, 33, 33)" stroke="none" stroke-width="1px">120</text><text x="268.046875" y="0" dx="0em" dy="0.95em" style="text-anchor: middle; visibility: hidden; font-family: Roboto, sans-serif; font-size: 12px; font-weight: 200;" fill="rgb(33, 33, 33)" stroke="none" stroke-width="1px">130</text></g><line x1="0" y1="0" x2="268.046875" y2="0" fill="rgb(0, 0, 0)" stroke="rgb(204, 204, 204)" stroke-width="1px"></line></g></g></g></g></svg>