<svg viewBox="0 0 330 200" xmlns="http://www.w3.org/2000/svg"><g><g><g><g><g><line x1="61.953125" y1="177" x2="56.953125" y2="177" style="visibility: inherit;" fill="rgb(0, 0, 0)" stroke="rgb(204, 204, 204)" stroke-width="1px"></line><line x1="61.953125" y1="164.35714285714283" x2="56.953125" y2="164.35714285714283" style="visibility: inherit;" fill="rgb(0, 0, 0)" stroke="rgb(204, 204, 204)" stroke-width="1px"></line><line x1="61.953125" y1="151.7142857142857" x2="56.953125" y2="151.7142857142857" style="visibility: inherit;" fill="rgb(0, 0, 0)" stroke="rgb(204, 204, 204)" stroke-width="1px"></line><line x1="61.953125" y1="139.07142857142856" x2="56.953125" y2="139.07142857142856" style="visibility: inherit;" fill="rgb(0, 0, 0)" stroke="rgb(204, 204, 204)" stroke-width="1px"></line><line x1="61.953125" y1="126.42857142857139" x2="56.953125" y2="126.42857142857139" style="visibility: inherit;" fill="rgb(0, 0, 0)" stroke="rgb(204, 204, 204)" stroke-width="1px"></line><line x1="61.953125" y1="113.78571428571423" x2="56.953125" y2="113.78571428571423" style="visibility: inherit;" fill="rgb(0, 0, 0)" stroke="rgb(204, 204, 204)" stroke-width="1px"></line><line x1="61.953125" y1="101.14285714285708" x2="56.953125" y2="101.14285714285708" style="visibility: inherit;" fill="rgb(0, 0, 0)" stroke="rgb(204, 204, 204)" stroke-width="1px"></line><line x1="61.953125" y1="88.49999999999991" x2="56.953125" y2="88.49999999999991" style="visibility: inherit;" fill="rgb(0, 0, 0)" stroke="rgb(204, 204, 204)" stroke-width="1px"></line><line x1="61.953125" y1="75.85714285714279" x2="56.953125" y2="75.85714285714279" style="visibility: inherit;" fill="rgb(0, 0, 0)" stroke="rgb(204, 204, 204)" stroke-width="1px"></line><line x1="61.953125" y1="63.21428571428563" x2="56.953125" y2="63.21428571428563" style="visibility: inherit;" fill="rgb(0, 0, 0)" stroke="rgb(204, 204, 204)" stroke-width="1px"></line><line x1="61.953125" y1="50.57142857142847" x2="56.953125" y2="50.57142857142847" style="visibility: inherit;" fill="rgb(0, 0, 0)" stroke="rgb(204, 204, 204)" stroke-width="1px"></line><line x1="61.953125" y1="37.92857142857145" x2="56.953125" y2="37.92857142857145" style="visibility: inherit;" fill="rgb(0, 0, 0)" stroke="rgb(204, 204, 204)" stroke-width="1px"></line><line x1="61.953125" y1="25.285714285714313" x2="56.953125" y2="25.285714285714313" style="visibility: inherit;" fill="rgb(0, 0, 0)" stroke="rgb(204, 204, 204)" stroke-width="1px"></line><line x1="61.953125" y1="12.642857142857157" x2="56.953125" y2="12.642857142857157" style="visibility: inherit;" fill="rgb(0, 0, 0)" stroke="rgb(204, 204, 204)" stroke-width="1px"></line><line x1="61.953125" y1="0" x2="56.953125" y2="0" style="visibility: inherit;" fill="rgb(0, 0, 0)" stroke="rgb(204, 204, 204)" stroke-width="1px"></line></g><g transform="translate(51.953125, 0)"><text x="0" y="177" dx="0em" dy="0.3em" style="text-anchor: end; visibility: hidden; font-family: Roboto, sans-serif; font-size: 12px; font-weight: 200;" fill="rgb(33, 33, 33)" stroke="none" stroke-width="1px">0.415</text><text x="0" y="164.35714285714283" dx="0em" dy="0.3em" style="text-anchor: end; visibility: inherit; font-family: Roboto, sans-serif; font-size: 12px; font-weight: 200;" fill="rgb(33, 33, 33)" stroke="none" stroke-width="1px">0.42</text><text x="0" y="151.7142857142857" dx="0em" dy="0.3em" style="text-anchor: end; visibility: hidden; font-family: Roboto, sans-serif; font-size: 12px; font-weight: 200;" fill="rgb(33, 33, 33)" stroke="none" stroke-width="1px">0.425</text><text x="0" y="139.07142857142856" dx="0em" dy="0.3em" style="text-anchor: end; visibility: inherit; font-family: Roboto, sans-serif; font-size: 12px; font-weight: 200;" fill="rgb(33, 33, 33)" stroke="none" stroke-width="1px">0.43</text><text x="0" y="126.42857142857139" dx="0em" dy="0.3em" style="text-anchor: end; visibility: hidden; font-family: Roboto, sans-serif; font-size: 12px; font-weight: 200;" fill="rgb(33, 33, 33)" stroke="none" stroke-width="1px">0.435</text><text x="0" y="113.78571428571423" dx="0em" dy="0.3em" style="text-anchor: end; visibility: inherit; font-family: Roboto, sans-serif; font-size: 12px; font-weight: 200;" fill="rgb(33, 33, 33)" stroke="none" stroke-width="1px">0.44</text><text x="0" y="101.14285714285708" dx="0em" dy="0.3em" style="text-anchor: end; visibility: hidden; font-family: Roboto, sans-serif; font-size: 12px; font-weight: 200;" fill="rgb(33, 33, 33)" stroke="none" stroke-width="1px">0.445</text><text x="0" y="88.49999999999991" dx="0em" dy="0.3em" style="text-anchor: end; visibility: inherit; font-family: Roboto, sans-serif; font-size: 12px; font-weight: 200;" fill="rgb(33, 33, 33)" stroke="none" stroke-width="1px">0.45</text><text x="0" y="75.85714285714279" dx="0em" dy="0.3em" style="text-anchor: end; visibility: hidden; font-family: Roboto, sans-serif; font-size: 12px; font-weight: 200;" fill="rgb(33, 33, 33)" stroke="none" stroke-width="1px">0.455</text><text x="0" y="63.21428571428563" dx="0em" dy="0.3em" style="text-anchor: end; visibility: inherit; font-family: Roboto, sans-serif; font-size: 12px; font-weight: 200;" fill="rgb(33, 33, 33)" stroke="none" stroke-width="1px">0.46</text><text x="0" y="50.57142857142847" dx="0em" dy="0.3em" style="text-anchor: end; visibility: hidden; font-family: Roboto, sans-serif; font-size: 12px; font-weight: 200;" fill="rgb(33, 33, 33)" stroke="none" stroke-width="1px">0.465</text><text x="0" y="37.92857142857145" dx="0em" dy="0.3em" style="text-anchor: end; visibility: inherit; font-family: Roboto, sans-serif; font-size: 12px; font-weight: 200;" fill="rgb(33, 33, 33)" stroke="none" stroke-width="1px">0.47</text><text x="0" y="25.285714285714313" dx="0em" dy="0.3em" style="text-anchor: end; visibility: hidden; font-family: Roboto, sans-serif; font-size: 12px; font-weight: 200;" fill="rgb(33, 33, 33)" stroke="none" stroke-width="1px">0.475</text><text x="0" y="12.642857142857157" dx="0em" dy="0.3em" style="text-anchor: end; visibility: inherit; font-family: Roboto, sans-serif; font-size: 12px; font-weight: 200;" fill="rgb(33, 33, 33)" stroke="none" stroke-width="1px">0.48</text><text x="0" y="0" dx="0em" dy="0.3em" style="text-anchor: end; visibility: hidden; font-family: Roboto, sans-serif; font-size: 12px; font-weight: 200;" fill="rgb(33, 33, 33)" stroke="none" stroke-width="1px">0.485</text></g><line x1="61.953125" y1="0" x2="61.953125" y2="177" fill="rgb(0, 0, 0)" stroke="rgb(204, 204, 204)" stroke-width="1px"></line></g></g><g transform="translate(61, 0)" clip-path="url(#clip_0)"><clipPath id="clip_0"><rect width="268" height="177"></rect></clipPath><g><g><g><line x1="0" y1="0" x2="0" y2="177" fill="rgb(0, 0, 0)" stroke="rgb(66, 66, 66)" stroke-width="1px" opacity="0.25"></line><line x1="19.146205357142858" y1="0" x2="19.146205357142858" y2="177" fill="rgb(0, 0, 0)" stroke="rgb(66, 66, 66)" stroke-width="1px" opacity="0.25"></line><line x1="38.292410714285715" y1="0" x2="38.292410714285715" y2="177" fill="rgb(0, 0, 0)" stroke="rgb(66, 66, 66)" stroke-width="1px" opacity="0.25"></line><line x1="57.43861607142857" y1="0" x2="57.43861607142857" y2="177" fill="rgb(0, 0, 0)" stroke="rgb(66, 66, 66)" stroke-width="1px" opacity="0.25"></line><line x1="76.58482142857143" y1="0" x2="76.58482142857143" y2="177" fill="rgb(0, 0, 0)" stroke="rgb(66, 66, 66)" stroke-width="1px" opacity="0.25"></line><line x1="95.73102678571429" y1="0" x2="95.73102678571429" y2="177" fill="rgb(0, 0, 0)" stroke="rgb(66, 66, 66)" stroke-width="1px" opacity="0.25"></line><line x1="114.87723214285714" y1="0" x2="114.87723214285714" y2="177" fill="rgb(0, 0, 0)" stroke="rgb(66, 66, 66)" stroke-width="1px" opacity="0.25"></line><line x1="134.0234375" y1="0" x2="134.0234375" y2="177" fill="rgb(0, 0, 0)" stroke="rgb(66, 66, 66)" stroke-width="1px" opacity="0.25"></line><line x1="153.16964285714286" y1="0" x2="153.16964285714286" y2="177" fill="rgb(0, 0, 0)" stroke="rgb(66, 66, 66)" stroke-width="1px" opacity="0.25"></line><line x1="172.31584821428572" y1="0" x2="172.31584821428572" y2="177" fill="rgb(0, 0, 0)" stroke="rgb(66, 66, 66)" stroke-width="1px" opacity="0.25"></line><line x1="191.46205357142858" y1="0" x2="191.46205357142858" y2="177" fill="rgb(0, 0, 0)" stroke="rgb(66, 66, 66)" stroke-width="1px" opacity="0.25"></line><line x1="210.60825892857142" y1="0" x2="210.60825892857142" y2="177" fill="rgb(0, 0, 0)" stroke="rgb(66, 66, 66)" stroke-width="1px" opacity="0.25"></line><line x1="229.75446428571428" y1="0" x2="229.75446428571428" y2="177" fill="rgb(0, 0, 0)" stroke="rgb(66, 66, 66)" stroke-width="1px" opacity="0.25"></line><line x1="248.90066964285714" y1="0" x2="248.90066964285714" y2="177" fill="rgb(0, 0, 0)" stroke="rgb(66, 66, 66)" stroke-width="1px" opacity="0.25"></line><line x1="268.046875" y1="0" x2="268.046875" y2="177" fill="rgb(0, 0, 0)" stroke="rgb(66, 66, 66)" stroke-width="1px" opacity="0.25"></line></g><g><line x1="0" y1="177" x2="268.046875" y2="177" fill="rgb(0, 0, 0)" stroke="rgb(66, 66, 66)" stroke-width="1px" opacity="0.25"></line><line x1="0" y1="164.35714285714283" x2="268.046875" y2="164.35714285714283" fill="rgb(0, 0, 0)" stroke="rgb(66, 66, 66)" stroke-width="1px" opacity="0.25"></line><line x1="0" y1="151.7142857142857" x2="268.046875" y2="151.7142857142857" fill="rgb(0, 0, 0)" stroke="rgb(66, 66, 66)" stroke-width="1px" opacity="0.25"></line><line x1="0" y1="139.07142857142856" x2="268.046875" y2="139.07142857142856" fill="rgb(0, 0, 0)" stroke="rgb(66, 66, 66)" stroke-width="1px" opacity="0.25"></line><line x1="0" y1="126.42857142857139" x2="268.046875" y2="126.42857142857139" fill="rgb(0, 0, 0)" stroke="rgb(66, 66, 66)" stroke-width="1px" opacity="0.25"></line><line x1="0" y1="113.78571428571423" x2="268.046875" y2="113.78571428571423" fill="rgb(0, 0, 0)" stroke="rgb(66, 66, 66)" stroke-width="1px" opacity="0.25"></line><line x1="0" y1="101.14285714285708" x2="268.046875" y2="101.14285714285708" fill="rgb(0, 0, 0)" stroke="rgb(66, 66, 66)" stroke-width="1px" opacity="0.25"></line><line x1="0" y1="88.49999999999991" x2="268.046875" y2="88.49999999999991" fill="rgb(0, 0, 0)" stroke="rgb(66, 66, 66)" stroke-width="1px" opacity="0.25"></line><line x1="0" y1="75.85714285714279" x2="268.046875" y2="75.85714285714279" fill="rgb(0, 0, 0)" stroke="rgb(66, 66, 66)" stroke-width="1px" opacity="0.25"></line><line x1="0" y1="63.21428571428563" x2="268.046875" y2="63.21428571428563" fill="rgb(0, 0, 0)" stroke="rgb(66, 66, 66)" stroke-width="1px" opacity="0.25"></line><line x1="0" y1="50.57142857142847" x2="268.046875" y2="50.57142857142847" fill="rgb(0, 0, 0)" stroke="rgb(66, 66, 66)" stroke-width="1px" opacity="0.25"></line><line x1="0" y1="37.92857142857145" x2="268.046875" y2="37.92857142857145" fill="rgb(0, 0, 0)" stroke="rgb(66, 66, 66)" stroke-width="1px" opacity="0.25"></line><line x1="0" y1="25.285714285714313" x2="268.046875" y2="25.285714285714313" fill="rgb(0, 0, 0)" stroke="rgb(66, 66, 66)" stroke-width="1px" opacity="0.25"></line><line x1="0" y1="12.642857142857157" x2="268.046875" y2="12.642857142857157" fill="rgb(0, 0, 0)" stroke="rgb(66, 66, 66)" stroke-width="1px" opacity="0.25"></line><line x1="0" y1="0" x2="268.046875" y2="0" fill="rgb(0, 0, 0)" stroke="rgb(66, 66, 66)" stroke-width="1px" opacity="0.25"></line></g></g></g><g><g><line x1="0" y1="1226.3571428571427" x2="268.046875" y2="1226.3571428571427" fill="rgb(0, 0, 0)" stroke="rgb(153, 153, 153)" stroke-width="1.5px"></line></g></g><g><g><line x1="19.146205357142858" y1="0" x2="19.146205357142858" y2="177" fill="rgb(0, 0, 0)" stroke="rgb(153, 153, 153)" stroke-width="1.5px"></line></g></g><g><g><g><g><g><path stroke="rgb(0, 119, 187)" stroke-width="2px" d="M36.37779017857142,182.58271166448696L38.292410714285715,172.22462062860436L40.20703125,166.03386893748274L42.121651785714285,162.32805378996548L44.03627232142857,160.10766476392737L45.950892857142854,158.7765454652976L47.865513392857146,157.97827455742993L49.78013392857143,157.49945616574743L51.694754464285715,157.21221700669992L53.609375,157.03989218248688L55.52399553571429,156.93650400870462L57.43861607142857,156.8744735237112L59.353236607142854,156.83725610361267L61.26785714285714,156.81492596506783L63.18247767857143,156.8015279948041L65.09709821428571,156.7934892532761L67.01171875,156.78866602298626L68.92633928571428,156.7857720900778L70.84095982142857,156.7840357322285L72.75558035714285,156.7829939182013L74.67020089285714,156.78236883003058L76.58482142857143,156.78199377721663L78.49944196428572,156.78176874556002L80.4140625,156.78163372657764L82.32868303571429,156.78155271519228L84.24330357142857,156.78150410836258L86.15792410714286,156.78147494426528L88.07254464285714,156.78145744580704L89.98716517857142,156.7814469467322L91.90178571428571,156.78144064728733L93.81640625,156.78143686762027L95.73102678571429,156.78143459982022L97.64564732142857,156.78143323914003L99.56026785714286,156.78143242273202L101.47488839285714,156.78143193288724L103.38950892857143,156.7814316389804L105.30412946428571,156.78143146263628L107.21875,156.7814313568298L109.13337053571429,156.78143129334575L111.04799107142858,156.78143125525548L112.96261160714286,156.78143123240116L114.87723214285714,156.78143121868874L116.79185267857143,156.78143121046128L118.70647321428571,156.78143120552468L120.62109375,156.78143120256286L122.53571428571428,156.78143120078573L124.45033482142857,156.78143119971938L126.36495535714286,156.78143119907972L128.27957589285714,156.78143119869569L130.19419642857142,156.78143119846536L132.10881696428572,156.78143119832723L134.0234375,156.78143119824443L135.93805803571428,156.78143119819458L137.85267857142856,156.78143119816485L139.76729910714286,156.7814311981469L141.68191964285714,156.78143119813606L143.59654017857142,156.7814311981296L145.5111607142857,156.78143119812583L147.42578125,156.78143119812344L149.34040178571428,156.7814311981222L151.25502232142858,156.7814311981212L153.16964285714286,156.78143119812063L155.08426339285717,156.78143119812034L156.99888392857144,156.7814311981202L158.91350446428572,156.7814311981202L160.828125,156.7814311981201L162.74274553571428,156.7814311981201L164.65736607142858,156.7814311981201L166.57198660714286,156.7814311981201L168.48660714285714,156.7814311981201L170.40122767857142,156.7814311981201L172.31584821428572,156.7814311981201L174.23046875,156.7814311981201L176.14508928571428,156.7814311981201L178.05970982142856,156.7814311981201L179.97433035714283,156.7814311981201L181.88895089285714,156.7814311981201L183.80357142857142,156.7814311981201L185.71819196428572,156.7814311981201L187.6328125,156.7814311981201L189.5474330357143,156.7814311981201L191.46205357142858,156.7814311981201L193.37667410714286,156.7814311981201L195.29129464285714,156.7814311981201L197.20591517857144,156.7814311981201L199.12053571428572,156.7814311981201L201.03515625,156.7814311981201L202.94977678571428,156.7814311981201L204.86439732142856,156.7814311981201L206.77901785714286,156.7814311981201L208.69363839285714,156.7814311981201L210.60825892857142,156.7814311981201L212.5228794642857,156.7814311981201L214.4375,156.7814311981201L216.35212053571428,156.7814311981201L218.26674107142858,156.7814311981201L220.18136160714286,156.7814311981201L222.09598214285717,156.7814311981201L224.01060267857144,156.7814311981201L225.92522321428572,156.7814311981201L227.83984375,156.7814311981201L229.75446428571428,156.7814311981201L231.66908482142858,156.7814311981201L233.58370535714286,156.7814311981201L235.49832589285714,156.7814311981201L237.41294642857142,156.7814311981201L239.32756696428572,156.7814311981201L241.2421875,156.7814311981201L243.15680803571428,156.7814311981201L245.07142857142856,156.7814311981201L246.98604910714283,156.7814311981201L248.90066964285714,156.7814311981201L250.81529017857142,156.7814311981201" style="fill: none;" fill="none"></path></g><g><path stroke="rgb(255, 112, 67)" stroke-width="2px" d="M19.146205357142858,-12.773475459643818L21.060825892857142,5.8979913762637235L22.975446428571427,11.613746530112893L24.890066964285715,14.135403215634728L26.8046875,15.42160561942283L28.719308035714285,16.126184809467485L30.63392857142857,16.527287793291766L32.548549107142854,16.760640699853585L34.46316964285714,16.898118470211823L36.37779017857142,16.979713044438796L38.292410714285715,17.028352881684334L40.20703125,17.05742360076158L42.121651785714285,17.074825479641845L44.03627232142857,17.085252049602758L45.950892857142854,17.091502759875056L47.865513392857146,17.09525130455382L49.78013392857143,17.097499754443056L51.694754464285715,17.098848580775858L53.609375,17.099657788898856L55.52399553571429,17.100143282212887L57.43861607142857,17.100434566841056L59.353236607142854,17.100609333528187L61.26785714285714,17.100714192068402L63.18247767857143,17.100777106662473L65.09709821428571,17.1008148552279L67.01171875,17.10083750429875L68.92633928571428,17.100851093716265L70.84095982142857,17.10085924735816L72.75558035714285,17.100864139540153L74.67020089285714,17.100867074847955L76.58482142857143,17.100868836032408L78.49944196428572,17.100869892742875L80.4140625,17.10087052676918L82.32868303571429,17.10087090718472L84.24330357142857,17.100871135434133L86.15792410714286,17.10087127238369L88.07254464285714,17.100871354553554L89.98716517857142,17.10087140385527L91.90178571428571,17.100871433436684L93.81640625,17.100871451185263L95.73102678571429,17.100871461834405L97.64564732142857,17.10087146822391L99.56026785714286,17.100871472057673L101.47488839285714,17.100871474358094L103.38950892857143,17.100871475738295L105.30412946428571,17.10087147656629L107.21875,17.100871477063183L109.13337053571429,17.100871477361032L111.04799107142858,17.100871477539854L112.96261160714286,17.100871477647228L114.87723214285714,17.100871477711525L116.79185267857143,17.100871477750395L118.70647321428571,17.100871477773428L120.62109375,17.100871477787457L122.53571428571428,17.10087147779575L124.45033482142857,17.1008714778008L126.36495535714286,17.100871477803885L128.27957589285714,17.10087147780542L130.19419642857142,17.10087147780656L132.10881696428572,17.100871477807246L134.0234375,17.10087147780754L135.93805803571428,17.100871477807818L137.85267857142856,17.100871477807818L139.76729910714286,17.100871477807818L141.68191964285714,17.10087147780809L143.59654017857142,17.10087147780823L145.5111607142857,17.100871477808365L147.42578125,17.100871477808365L149.34040178571428,17.10087147780823L151.25502232142858,17.10087147780809L153.16964285714286,17.10087147780823L155.08426339285717,17.100871477808365L156.99888392857144,17.100871477808365L158.91350446428572,17.100871477808525L160.828125,17.100871477808525L162.74274553571428,17.100871477808525L164.65736607142858,17.100871477808525L166.57198660714286,17.100871477808525" style="fill: none;" fill="none"></path></g></g></g></g><g opacity="0.2"><g><g><g><path stroke="rgb(0, 119, 187)" stroke-width="2px" d="M22.975446428571427,592.1053362914494L24.890066964285715,156.7814311981201L26.8046875,156.7814311981201L28.719308035714285,592.1053362914494L30.63392857142857,156.7814311981201L32.548549107142854,156.7814311981201L34.46316964285714,156.7814311981201L36.37779017857142,156.7814311981201L38.292410714285715,156.7814311981201L40.20703125,156.7814311981201L42.121651785714285,156.7814311981201L44.03627232142857,156.7814311981201L45.950892857142854,156.7814311981201L47.865513392857146,156.7814311981201L49.78013392857143,156.7814311981201L51.694754464285715,156.7814311981201L53.609375,156.7814311981201L55.52399553571429,156.7814311981201L57.43861607142857,156.7814311981201L59.353236607142854,156.7814311981201L61.26785714285714,156.7814311981201L63.18247767857143,156.7814311981201L65.09709821428571,156.7814311981201L67.01171875,156.7814311981201L68.92633928571428,156.7814311981201L70.84095982142857,156.7814311981201L72.75558035714285,156.7814311981201L74.67020089285714,156.7814311981201L76.58482142857143,156.7814311981201L78.49944196428572,156.7814311981201L80.4140625,156.7814311981201L82.32868303571429,156.7814311981201L84.24330357142857,156.7814311981201L86.15792410714286,156.7814311981201L88.07254464285714,156.7814311981201L89.98716517857142,156.7814311981201L91.90178571428571,156.7814311981201L93.81640625,156.7814311981201L95.73102678571429,156.7814311981201L97.64564732142857,156.7814311981201L99.56026785714286,156.7814311981201L101.47488839285714,156.7814311981201L103.38950892857143,156.7814311981201L105.30412946428571,156.7814311981201L107.21875,156.7814311981201L109.13337053571429,156.7814311981201L111.04799107142858,156.7814311981201L112.96261160714286,156.7814311981201L114.87723214285714,156.7814311981201L116.79185267857143,156.7814311981201L118.70647321428571,156.7814311981201L120.62109375,156.7814311981201L122.53571428571428,156.7814311981201L124.45033482142857,156.7814311981201L126.36495535714286,156.7814311981201L128.27957589285714,156.7814311981201L130.19419642857142,156.7814311981201L132.10881696428572,156.7814311981201L134.0234375,156.7814311981201L135.93805803571428,156.7814311981201L137.85267857142856,156.7814311981201L139.76729910714286,156.7814311981201L141.68191964285714,156.7814311981201L143.59654017857142,156.7814311981201L145.5111607142857,156.7814311981201L147.42578125,156.7814311981201L149.34040178571428,156.7814311981201L151.25502232142858,156.7814311981201L153.16964285714286,156.7814311981201L155.08426339285717,156.7814311981201L156.99888392857144,156.7814311981201L158.91350446428572,156.7814311981201L160.828125,156.7814311981201L162.74274553571428,156.7814311981201L164.65736607142858,156.7814311981201L166.57198660714286,156.7814311981201L168.48660714285714,156.7814311981201L170.40122767857142,156.7814311981201L172.31584821428572,156.7814311981201L174.23046875,156.7814311981201L176.14508928571428,156.7814311981201L178.05970982142856,156.7814311981201L179.97433035714283,156.7814311981201L181.88895089285714,156.7814311981201L183.80357142857142,156.7814311981201L185.71819196428572,156.7814311981201L187.6328125,156.7814311981201L189.5474330357143,156.7814311981201L191.46205357142858,156.7814311981201L193.37667410714286,156.7814311981201L195.29129464285714,156.7814311981201L197.20591517857144,156.7814311981201L199.12053571428572,156.7814311981201L201.03515625,156.7814311981201L202.94977678571428,156.7814311981201L204.86439732142856,156.7814311981201L206.77901785714286,156.7814311981201L208.69363839285714,156.7814311981201L210.60825892857142,156.7814311981201L212.5228794642857,156.7814311981201L214.4375,156.7814311981201L216.35212053571428,156.7814311981201L218.26674107142858,156.7814311981201L220.18136160714286,156.7814311981201L222.09598214285717,156.7814311981201L224.01060267857144,156.7814311981201L225.92522321428572,156.7814311981201L227.83984375,156.7814311981201L229.75446428571428,156.7814311981201L231.66908482142858,156.7814311981201L233.58370535714286,156.7814311981201L235.49832589285714,156.7814311981201L237.41294642857142,156.7814311981201L239.32756696428572,156.7814311981201L241.2421875,156.7814311981201L243.15680803571428,156.7814311981201L245.07142857142856,156.7814311981201L246.98604910714283,156.7814311981201L248.90066964285714,156.7814311981201L250.81529017857142,156.7814311981201" style="fill: none;" fill="none"></path></g><g><path stroke="rgb(255, 112, 67)" stroke-width="2px" d="M19.146205357142858,-12.773475459643818L21.060825892857142,17.10087147780823L22.975446428571427,17.10087147780823L24.890066964285715,17.10087147780823L26.8046875,17.10087147780823L28.719308035714285,17.10087147780823L30.63392857142857,17.10087147780823L32.548549107142854,17.10087147780823L34.46316964285714,17.10087147780823L36.37779017857142,17.10087147780823L38.292410714285715,17.10087147780823L40.20703125,17.10087147780823L42.121651785714285,17.10087147780823L44.03627232142857,17.10087147780823L45.950892857142854,17.10087147780823L47.865513392857146,17.10087147780823L49.78013392857143,17.10087147780823L51.694754464285715,17.10087147780823L53.609375,17.10087147780823L55.52399553571429,17.10087147780823L57.43861607142857,17.10087147780823L59.353236607142854,17.10087147780823L61.26785714285714,17.10087147780823L63.18247767857143,17.10087147780823L65.09709821428571,17.10087147780823L67.01171875,17.10087147780823L68.92633928571428,17.10087147780823L70.84095982142857,17.10087147780823L72.75558035714285,17.10087147780823L74.67020089285714,17.10087147780823L76.58482142857143,17.10087147780823L78.49944196428572,17.10087147780823L80.4140625,17.10087147780823L82.32868303571429,17.10087147780823L84.24330357142857,17.10087147780823L86.15792410714286,17.10087147780823L88.07254464285714,17.10087147780823L89.98716517857142,17.10087147780823L91.90178571428571,17.10087147780823L93.81640625,17.10087147780823L95.73102678571429,17.10087147780823L97.64564732142857,17.10087147780823L99.56026785714286,17.10087147780823L101.47488839285714,17.10087147780823L103.38950892857143,17.10087147780823L105.30412946428571,17.10087147780823L107.21875,17.10087147780823L109.13337053571429,17.10087147780823L111.04799107142858,17.10087147780823L112.96261160714286,17.10087147780823L114.87723214285714,17.10087147780823L116.79185267857143,17.10087147780823L118.70647321428571,17.10087147780823L120.62109375,17.10087147780823L122.53571428571428,17.10087147780823L124.45033482142857,17.10087147780823L126.36495535714286,17.10087147780823L128.27957589285714,17.10087147780823L130.19419642857142,17.10087147780823L132.10881696428572,17.10087147780823L134.0234375,17.10087147780823L135.93805803571428,17.10087147780823L137.85267857142856,17.10087147780823L139.76729910714286,17.10087147780823L141.68191964285714,17.10087147780823L143.59654017857142,17.10087147780823L145.5111607142857,17.10087147780823L147.42578125,17.10087147780823L149.34040178571428,17.10087147780823L151.25502232142858,17.10087147780823L153.16964285714286,17.10087147780823L155.08426339285717,17.10087147780823L156.99888392857144,17.10087147780823L158.91350446428572,17.10087147780823L160.828125,17.10087147780823L162.74274553571428,17.10087147780823L164.65736607142858,17.10087147780823L166.57198660714286,17.10087147780823" style="fill: none;" fill="none"></path></g></g></g></g></g></g><g transform="translate(61, 177)" clip-path="url(#clip_1)"><clipPath id="clip_1"><rect width="268" height="23"></rect></clipPath><g><g><line x1="0" y1="0" x2="0" y2="5" style="visibility: inherit;" fill="rgb(0, 0, 0)" stroke="rgb(204, 204, 204)" stroke-width="1px"></line><line x1="19.146205357142858" y1="0" x2="19.146205357142858" y2="5" style="visibility: inherit;" fill="rgb(0, 0, 0)" stroke="rgb(204, 204, 204)" stroke-width="1px"></line><line x1="38.292410714285715" y1="0" x2="38.292410714285715" y2="5" style="visibility: inherit;" fill="rgb(0, 0, 0)" stroke="rgb(204, 204, 204)" stroke-width="1px"></line><line x1="57.43861607142857" y1="0" x2="57.43861607142857" y2="5" style="visibility: inherit;" fill="rgb(0, 0, 0)" stroke="rgb(204, 204, 204)" stroke-width="1px"></line><line x1="76.58482142857143" y1="0" x2="76.58482142857143" y2="5" style="visibility: inherit;" fill="rgb(0, 0, 0)" stroke="rgb(204, 204, 204)" stroke-width="1px"></line><line x1="95.73102678571429" y1="0" x2="95.73102678571429" y2="5" style="visibility: inherit;" fill="rgb(0, 0, 0)" stroke="rgb(204, 204, 204)" stroke-width="1px"></line><line x1="114.87723214285714" y1="0" x2="114.87723214285714" y2="5" style="visibility: inherit;" fill="rgb(0, 0, 0)" stroke="rgb(204, 204, 204)" stroke-width="1px"></line><line x1="134.0234375" y1="0" x2="134.0234375" y2="5" style="visibility: inherit;" fill="rgb(0, 0, 0)" stroke="rgb(204, 204, 204)" stroke-width="1px"></line><line x1="153.16964285714286" y1="0" x2="153.16964285714286" y2="5" style="visibility: inherit;" fill="rgb(0, 0, 0)" stroke="rgb(204, 204, 204)" stroke-width="1px"></line><line x1="172.31584821428572" y1="0" x2="172.31584821428572" y2="5" style="visibility: inherit;" fill="rgb(0, 0, 0)" stroke="rgb(204, 204, 204)" stroke-width="1px"></line><line x1="191.46205357142858" y1="0" x2="191.46205357142858" y2="5" style="visibility: inherit;" fill="rgb(0, 0, 0)" stroke="rgb(204, 204, 204)" stroke-width="1px"></line><line x1="210.60825892857142" y1="0" x2="210.60825892857142" y2="5" style="visibility: inherit;" fill="rgb(0, 0, 0)" stroke="rgb(204, 204, 204)" stroke-width="1px"></line><line x1="229.75446428571428" y1="0" x2="229.75446428571428" y2="5" style="visibility: inherit;" fill="rgb(0, 0, 0)" stroke="rgb(204, 204, 204)" stroke-width="1px"></line><line x1="248.90066964285714" y1="0" x2="248.90066964285714" y2="5" style="visibility: inherit;" fill="rgb(0, 0, 0)" stroke="rgb(204, 204, 204)" stroke-width="1px"></line><line x1="268.046875" y1="0" x2="268.046875" y2="5" style="visibility: inherit;" fill="rgb(0, 0, 0)" stroke="rgb(204, 204, 204)" stroke-width="1px"></line></g><g transform="translate(0, 8)"><text x="0" y="0" dx="0em" dy="0.95em" style="text-anchor: middle; visibility: hidden; font-family: Roboto, sans-serif; font-size: 12px; font-weight: 200;" fill="rgb(33, 33, 33)" stroke="none" stroke-width="1px">-10</text><text x="19.146205357142858" y="0" dx="0em" dy="0.95em" style="text-anchor: middle; visibility: inherit; font-family: Roboto, sans-serif; font-size: 12px; font-weight: 200;" fill="rgb(33, 33, 33)" stroke="none" stroke-width="1px">0</text><text x="38.292410714285715" y="0" dx="0em" dy="0.95em" style="text-anchor: middle; visibility: hidden; font-family: Roboto, sans-serif; font-size: 12px; font-weight: 200;" fill="rgb(33, 33, 33)" stroke="none" stroke-width="1px">10</text><text x="57.43861607142857" y="0" dx="0em" dy="0.95em" style="text-anchor: middle; visibility: inherit; font-family: Roboto, sans-serif; font-size: 12px; font-weight: 200;" fill="rgb(33, 33, 33)" stroke="none" stroke-width="1px">20</text><text x="76.58482142857143" y="0" dx="0em" dy="0.95em" style="text-anchor: middle; visibility: hidden; font-family: Roboto, sans-serif; font-size: 12px; font-weight: 200;" fill="rgb(33, 33, 33)" stroke="none" stroke-width="1px">30</text><text x="95.73102678571429" y="0" dx="0em" dy="0.95em" style="text-anchor: middle; visibility: inherit; font-family: Roboto, sans-serif; font-size: 12px; font-weight: 200;" fill="rgb(33, 33, 33)" stroke="none" stroke-width="1px">40</text><text x="114.87723214285714" y="0" dx="0em" dy="0.95em" style="text-anchor: middle; visibility: hidden; font-family: Roboto, sans-serif; font-size: 12px; font-weight: 200;" fill="rgb(33, 33, 33)" stroke="none" stroke-width="1px">50</text><text x="134.0234375" y="0" dx="0em" dy="0.95em" style="text-anchor: middle; visibility: inherit; font-family: Roboto, sans-serif; font-size: 12px; font-weight: 200;" fill="rgb(33, 33, 33)" stroke="none" stroke-width="1px">60</text><text x="153.16964285714286" y="0" dx="0em" dy="0.95em" style="text-anchor: middle; visibility: hidden; font-family: Roboto, sans-serif; font-size: 12px; font-weight: 200;" fill="rgb(33, 33, 33)" stroke="none" stroke-width="1px">70</text><text x="172.31584821428572" y="0" dx="0em" dy="0.95em" style="text-anchor: middle; visibility: inherit; font-family: Roboto, sans-serif; font-size: 12px; font-weight: 200;" fill="rgb(33, 33, 33)" stroke="none" stroke-width="1px">80</text><text x="191.46205357142858" y="0" dx="0em" dy="0.95em" style="text-anchor: middle; visibility: hidden; font-family: Roboto, sans-serif; font-size: 12px; font-weight: 200;" fill="rgb(33, 33, 33)" stroke="none" stroke-width="1px">90</text><text x="210.60825892857142" y="0" dx="0em" dy="0.95em" style="text-anchor: middle; visibility: inherit; font-family: Roboto, sans-serif; font-size: 12px; font-weight: 200;" fill="rgb(33, 33, 33)" stroke="none" stroke-width="1px">100</text><text x="229.75446428571428" y="0" dx="0em" dy="0.95em" style="text-anchor: middle; visibility: hidden; font-family: Roboto, sans-serif; font-size: 12px; font-weight: 200;" fill="rgb(33, 33, 33)" stroke="none" stroke-width="1px">110</text><text x="248.90066964285714" y="0" dx="0em" dy="0.95em" style="text-anchor: middle; visibility: inherit; font-family: Roboto, sans-serif; font-size: 12px; font-weight: 200;" fill="rgb(33, 33, 33)" stroke="none" stroke-width="1px">120</text><text x="268.046875" y="0" dx="0em" dy="0.95em" style="text-anchor: middle; visibility: hidden; font-family: Roboto, sans-serif; font-size: 12px; font-weight: 200;" fill="rgb(33, 33, 33)" stroke="none" stroke-width="1px">130</text></g><line x1="0" y1="0" x2="268.046875" y2="0" fill="rgb(0, 0, 0)" stroke="rgb(204, 204, 204)" stroke-width="1px"></line></g></g></g></g></svg>