<svg viewBox="0 0 330 200" xmlns="http://www.w3.org/2000/svg"><g><g><g><g><g><line x1="51.5625" y1="177" x2="46.5625" y2="177" style="visibility: inherit;" fill="rgb(0, 0, 0)" stroke="rgb(204, 204, 204)" stroke-width="1px"></line><line x1="51.5625" y1="159.3000000000001" x2="46.5625" y2="159.3000000000001" style="visibility: inherit;" fill="rgb(0, 0, 0)" stroke="rgb(204, 204, 204)" stroke-width="1px"></line><line x1="51.5625" y1="141.60000000000008" x2="46.5625" y2="141.60000000000008" style="visibility: inherit;" fill="rgb(0, 0, 0)" stroke="rgb(204, 204, 204)" stroke-width="1px"></line><line x1="51.5625" y1="123.90000000000008" x2="46.5625" y2="123.90000000000008" style="visibility: inherit;" fill="rgb(0, 0, 0)" stroke="rgb(204, 204, 204)" stroke-width="1px"></line><line x1="51.5625" y1="106.20000000000006" x2="46.5625" y2="106.20000000000006" style="visibility: inherit;" fill="rgb(0, 0, 0)" stroke="rgb(204, 204, 204)" stroke-width="1px"></line><line x1="51.5625" y1="88.50000000000004" x2="46.5625" y2="88.50000000000004" style="visibility: inherit;" fill="rgb(0, 0, 0)" stroke="rgb(204, 204, 204)" stroke-width="1px"></line><line x1="51.5625" y1="70.80000000000004" x2="46.5625" y2="70.80000000000004" style="visibility: inherit;" fill="rgb(0, 0, 0)" stroke="rgb(204, 204, 204)" stroke-width="1px"></line><line x1="51.5625" y1="53.10000000000003" x2="46.5625" y2="53.10000000000003" style="visibility: inherit;" fill="rgb(0, 0, 0)" stroke="rgb(204, 204, 204)" stroke-width="1px"></line><line x1="51.5625" y1="35.40000000000001" x2="46.5625" y2="35.40000000000001" style="visibility: inherit;" fill="rgb(0, 0, 0)" stroke="rgb(204, 204, 204)" stroke-width="1px"></line><line x1="51.5625" y1="17.700000000000017" x2="46.5625" y2="17.700000000000017" style="visibility: inherit;" fill="rgb(0, 0, 0)" stroke="rgb(204, 204, 204)" stroke-width="1px"></line><line x1="51.5625" y1="0" x2="46.5625" y2="0" style="visibility: inherit;" fill="rgb(0, 0, 0)" stroke="rgb(204, 204, 204)" stroke-width="1px"></line></g><g transform="translate(41.5625, 0)"><text x="0" y="177" dx="0em" dy="0.3em" style="text-anchor: end; visibility: hidden; font-family: Roboto, sans-serif; font-size: 12px; font-weight: 200;" fill="rgb(33, 33, 33)" stroke="none" stroke-width="1px">0.46</text><text x="0" y="159.3000000000001" dx="0em" dy="0.3em" style="text-anchor: end; visibility: inherit; font-family: Roboto, sans-serif; font-size: 12px; font-weight: 200;" fill="rgb(33, 33, 33)" stroke="none" stroke-width="1px">0.47</text><text x="0" y="141.60000000000008" dx="0em" dy="0.3em" style="text-anchor: end; visibility: hidden; font-family: Roboto, sans-serif; font-size: 12px; font-weight: 200;" fill="rgb(33, 33, 33)" stroke="none" stroke-width="1px">0.48</text><text x="0" y="123.90000000000008" dx="0em" dy="0.3em" style="text-anchor: end; visibility: inherit; font-family: Roboto, sans-serif; font-size: 12px; font-weight: 200;" fill="rgb(33, 33, 33)" stroke="none" stroke-width="1px">0.49</text><text x="0" y="106.20000000000006" dx="0em" dy="0.3em" style="text-anchor: end; visibility: hidden; font-family: Roboto, sans-serif; font-size: 12px; font-weight: 200;" fill="rgb(33, 33, 33)" stroke="none" stroke-width="1px">0.5</text><text x="0" y="88.50000000000004" dx="0em" dy="0.3em" style="text-anchor: end; visibility: inherit; font-family: Roboto, sans-serif; font-size: 12px; font-weight: 200;" fill="rgb(33, 33, 33)" stroke="none" stroke-width="1px">0.51</text><text x="0" y="70.80000000000004" dx="0em" dy="0.3em" style="text-anchor: end; visibility: hidden; font-family: Roboto, sans-serif; font-size: 12px; font-weight: 200;" fill="rgb(33, 33, 33)" stroke="none" stroke-width="1px">0.52</text><text x="0" y="53.10000000000003" dx="0em" dy="0.3em" style="text-anchor: end; visibility: inherit; font-family: Roboto, sans-serif; font-size: 12px; font-weight: 200;" fill="rgb(33, 33, 33)" stroke="none" stroke-width="1px">0.53</text><text x="0" y="35.40000000000001" dx="0em" dy="0.3em" style="text-anchor: end; visibility: hidden; font-family: Roboto, sans-serif; font-size: 12px; font-weight: 200;" fill="rgb(33, 33, 33)" stroke="none" stroke-width="1px">0.54</text><text x="0" y="17.700000000000017" dx="0em" dy="0.3em" style="text-anchor: end; visibility: inherit; font-family: Roboto, sans-serif; font-size: 12px; font-weight: 200;" fill="rgb(33, 33, 33)" stroke="none" stroke-width="1px">0.55</text><text x="0" y="0" dx="0em" dy="0.3em" style="text-anchor: end; visibility: hidden; font-family: Roboto, sans-serif; font-size: 12px; font-weight: 200;" fill="rgb(33, 33, 33)" stroke="none" stroke-width="1px">0.56</text></g><line x1="51.5625" y1="0" x2="51.5625" y2="177" fill="rgb(0, 0, 0)" stroke="rgb(204, 204, 204)" stroke-width="1px"></line></g></g><g transform="translate(51, 0)" clip-path="url(#clip_0)"><clipPath id="clip_0"><rect width="278" height="177"></rect></clipPath><g><g><g><line x1="0" y1="0" x2="0" y2="177" fill="rgb(0, 0, 0)" stroke="rgb(66, 66, 66)" stroke-width="1px" opacity="0.25"></line><line x1="19.888392857142858" y1="0" x2="19.888392857142858" y2="177" fill="rgb(0, 0, 0)" stroke="rgb(66, 66, 66)" stroke-width="1px" opacity="0.25"></line><line x1="39.776785714285715" y1="0" x2="39.776785714285715" y2="177" fill="rgb(0, 0, 0)" stroke="rgb(66, 66, 66)" stroke-width="1px" opacity="0.25"></line><line x1="59.66517857142857" y1="0" x2="59.66517857142857" y2="177" fill="rgb(0, 0, 0)" stroke="rgb(66, 66, 66)" stroke-width="1px" opacity="0.25"></line><line x1="79.55357142857143" y1="0" x2="79.55357142857143" y2="177" fill="rgb(0, 0, 0)" stroke="rgb(66, 66, 66)" stroke-width="1px" opacity="0.25"></line><line x1="99.44196428571429" y1="0" x2="99.44196428571429" y2="177" fill="rgb(0, 0, 0)" stroke="rgb(66, 66, 66)" stroke-width="1px" opacity="0.25"></line><line x1="119.33035714285714" y1="0" x2="119.33035714285714" y2="177" fill="rgb(0, 0, 0)" stroke="rgb(66, 66, 66)" stroke-width="1px" opacity="0.25"></line><line x1="139.21875" y1="0" x2="139.21875" y2="177" fill="rgb(0, 0, 0)" stroke="rgb(66, 66, 66)" stroke-width="1px" opacity="0.25"></line><line x1="159.10714285714286" y1="0" x2="159.10714285714286" y2="177" fill="rgb(0, 0, 0)" stroke="rgb(66, 66, 66)" stroke-width="1px" opacity="0.25"></line><line x1="178.99553571428572" y1="0" x2="178.99553571428572" y2="177" fill="rgb(0, 0, 0)" stroke="rgb(66, 66, 66)" stroke-width="1px" opacity="0.25"></line><line x1="198.88392857142858" y1="0" x2="198.88392857142858" y2="177" fill="rgb(0, 0, 0)" stroke="rgb(66, 66, 66)" stroke-width="1px" opacity="0.25"></line><line x1="218.77232142857142" y1="0" x2="218.77232142857142" y2="177" fill="rgb(0, 0, 0)" stroke="rgb(66, 66, 66)" stroke-width="1px" opacity="0.25"></line><line x1="238.66071428571428" y1="0" x2="238.66071428571428" y2="177" fill="rgb(0, 0, 0)" stroke="rgb(66, 66, 66)" stroke-width="1px" opacity="0.25"></line><line x1="258.54910714285717" y1="0" x2="258.54910714285717" y2="177" fill="rgb(0, 0, 0)" stroke="rgb(66, 66, 66)" stroke-width="1px" opacity="0.25"></line><line x1="278.4375" y1="0" x2="278.4375" y2="177" fill="rgb(0, 0, 0)" stroke="rgb(66, 66, 66)" stroke-width="1px" opacity="0.25"></line></g><g><line x1="0" y1="177" x2="278.4375" y2="177" fill="rgb(0, 0, 0)" stroke="rgb(66, 66, 66)" stroke-width="1px" opacity="0.25"></line><line x1="0" y1="159.3000000000001" x2="278.4375" y2="159.3000000000001" fill="rgb(0, 0, 0)" stroke="rgb(66, 66, 66)" stroke-width="1px" opacity="0.25"></line><line x1="0" y1="141.60000000000008" x2="278.4375" y2="141.60000000000008" fill="rgb(0, 0, 0)" stroke="rgb(66, 66, 66)" stroke-width="1px" opacity="0.25"></line><line x1="0" y1="123.90000000000008" x2="278.4375" y2="123.90000000000008" fill="rgb(0, 0, 0)" stroke="rgb(66, 66, 66)" stroke-width="1px" opacity="0.25"></line><line x1="0" y1="106.20000000000006" x2="278.4375" y2="106.20000000000006" fill="rgb(0, 0, 0)" stroke="rgb(66, 66, 66)" stroke-width="1px" opacity="0.25"></line><line x1="0" y1="88.50000000000004" x2="278.4375" y2="88.50000000000004" fill="rgb(0, 0, 0)" stroke="rgb(66, 66, 66)" stroke-width="1px" opacity="0.25"></line><line x1="0" y1="70.80000000000004" x2="278.4375" y2="70.80000000000004" fill="rgb(0, 0, 0)" stroke="rgb(66, 66, 66)" stroke-width="1px" opacity="0.25"></line><line x1="0" y1="53.10000000000003" x2="278.4375" y2="53.10000000000003" fill="rgb(0, 0, 0)" stroke="rgb(66, 66, 66)" stroke-width="1px" opacity="0.25"></line><line x1="0" y1="35.40000000000001" x2="278.4375" y2="35.40000000000001" fill="rgb(0, 0, 0)" stroke="rgb(66, 66, 66)" stroke-width="1px" opacity="0.25"></line><line x1="0" y1="17.700000000000017" x2="278.4375" y2="17.700000000000017" fill="rgb(0, 0, 0)" stroke="rgb(66, 66, 66)" stroke-width="1px" opacity="0.25"></line><line x1="0" y1="0" x2="278.4375" y2="0" fill="rgb(0, 0, 0)" stroke="rgb(66, 66, 66)" stroke-width="1px" opacity="0.25"></line></g></g></g><g><g><line x1="0" y1="991.1999999999998" x2="278.4375" y2="991.1999999999998" fill="rgb(0, 0, 0)" stroke="rgb(153, 153, 153)" stroke-width="1.5px"></line></g></g><g><g><line x1="19.888392857142858" y1="0" x2="19.888392857142858" y2="177" fill="rgb(0, 0, 0)" stroke="rgb(153, 153, 153)" stroke-width="1.5px"></line></g></g><g><g><g><g><g><path stroke="rgb(0, 119, 187)" stroke-width="2px" d="M31.82142857142857,-32.095733295939326L33.810267857142854,25.306239998085406L35.79910714285714,51.772968327717315L37.78794642857142,68.38236704422516L39.776785714285715,148.5659814438983L41.765625,128.21667220582395L43.754464285714285,117.60487642512824L45.74330357142857,114.83202008598622L47.732142857142854,104.15312285061538L49.720982142857146,80.11118029112998L51.70982142857143,120.27741361244227L53.698660714285715,80.10442316817682L55.6875,162.25449327723106L57.67633928571429,153.60277492473858L59.66517857142857,140.40702587192632L61.654017857142854,157.79181189838243L63.64285714285714,155.29169483053363L65.63169642857143,142.3722180681883L67.62053571428571,135.8520787739246L69.609375,126.0623898085179L71.59821428571428,86.04245605833368L73.58705357142857,92.53812413693758L75.57589285714285,67.66319608923271L77.56473214285714,102.50201419121007L79.55357142857143,149.15484803998189L81.54241071428572,100.62566642106658L83.53125,121.32787768123052L85.52008928571429,102.29002862790259L87.50892857142857,118.74395998641363L89.49776785714286,113.7263759400948L91.48660714285714,118.10482898718773L93.47544642857142,99.01271786852382L95.46428571428571,157.8648666462993L97.453125,137.19891996015434L99.44196428571429,119.36955097454907L101.43080357142857,115.61310565253984L103.41964285714286,100.03664941684211L105.40848214285714,77.81603507548554L107.39732142857143,78.14210491869254L109.38616071428571,95.97056850481019L111.375,115.00826204781242L113.36383928571429,130.96502448215844L115.35267857142858,144.7373788471574L117.34151785714286,129.32242730816978L119.33035714285714,131.94062767245126L121.31919642857143,121.64437660344079L123.30803571428571,165.73416868198237L125.296875,158.88160297958333L127.28571428571428,140.9996682792092L129.27455357142858,135.14052427227173L131.26339285714286,144.77969165572677L133.25223214285714,150.05938632922928L135.24107142857142,168.62095141671784L137.22991071428572,142.92487252391865L139.21875,128.23492351435087L141.20758928571428,141.1401158574969L143.19642857142856,134.10524557136L145.18526785714286,125.96591858209659L147.17410714285714,108.31951752270163L149.16294642857142,84.07323844292694L151.1517857142857,86.87840058719483L153.140625,94.27116984793751L155.12946428571428,106.2637700526072L157.11830357142858,105.6225205402465L159.10714285714286,126.28519157295773L161.09598214285717,130.11828623131132L163.08482142857144,124.35741972157489L165.07366071428572,115.30318467634407L167.0625,109.31085947524006L169.05133928571428,113.4403382549911L171.04017857142858,110.54420295299468L173.02901785714286,82.27330052698477L175.01785714285714,79.24911070254339L177.00669642857142,136.4905611585789L178.99553571428572,150.34777376599394L180.984375,125.74746710269022L182.97321428571428,126.21311723594886L184.96205357142856,94.3056136143507L186.95089285714283,124.42104264809493L188.93973214285714,117.13262558885698L190.92857142857142,93.55937908713977L192.91741071428572,84.0615343298016L194.90625,46.343847925990815L196.8950892857143,71.51781283827427L198.88392857142858,87.85369586832408L200.87276785714286,100.00625591687611L202.86160714285714,150.8480722785727L204.85044642857144,132.9888433671436L206.83928571428572,122.2733060202862L208.828125,174.78801222812322L210.81696428571428,138.28451471907613L212.80580357142856,144.14709934105116L214.79464285714286,135.62954357450988L216.78348214285714,123.85772614470598L218.77232142857142,61.37718406672174L220.7611607142857,68.67062213513191L222.75,15.110267873364352L224.73883928571428,95.09644105658387L226.72767857142858,85.87942618981276L228.71651785714286,106.99437424931094L230.70535714285717,125.26105822439898L232.69419642857144,156.26092003653L234.68303571428572,103.60183098119221L236.671875,95.06897911430426L238.66071428571428,77.74622620225568L240.64955357142858,33.99015508819007L242.63839285714286,26.26496767716637L244.62723214285714,60.64601035426279L246.61607142857142,87.8239630956066L248.60491071428572,94.50263684860539L250.59375,112.05634380979345L252.58258928571428,111.22518135549433L254.57142857142856,101.37829917813433L256.56026785714283,105.71400925484353L258.54910714285717,134.28885127167135L260.53794642857144,99.03909720099104" style="fill: none;" fill="none"></path></g><g><path stroke="rgb(255, 112, 67)" stroke-width="2px" d="M19.888392857142858,189.04631699323656L21.877232142857142,166.30554648935788L23.866071428571427,159.34408613102772L25.854910714285715,156.27285361999984L27.84375,154.7063332205511L29.832589285714285,153.84819637445125L31.82142857142857,153.35967605712824L33.810267857142854,153.0754656658842L35.79910714285714,152.90802566491485L37.78794642857142,152.8086481760881L39.776785714285715,152.74940765760832L41.765625,152.7140011972197L43.754464285714285,152.69280671167493L45.74330357142857,152.68010775038246L47.732142857142854,152.67249474552133L49.720982142857146,152.66792923414417L51.70982142857143,152.66519075176532L53.698660714285715,152.66354795902961L55.6875,152.66256239017363L57.67633928571429,152.66197108729745L59.66517857142857,152.66161631940835L61.654017857142854,152.66140346365563L63.64285714285714,152.66127575199727L65.63169642857143,152.66119912564767L67.62053571428571,152.66115315007025L69.609375,152.6611255648075L71.59821428571428,152.6611090136798L73.58705357142857,152.66109908301414L75.57589285714285,152.66109312461862L77.56473214285714,152.66108954958264L79.55357142857143,152.66108740456173L81.54241071428572,152.66108611754925L83.53125,152.6610853453418L85.52008928571429,152.66108488201746L87.50892857142857,152.66108460402285L89.49776785714286,152.6610844372262L91.48660714285714,152.66108433714786L93.47544642857142,152.66108427710105L95.46428571428571,152.66108424107298L97.453125,152.66108421945617L99.44196428571429,152.66108420648615L101.43080357142857,152.66108419870397L103.41964285714286,152.66108419403483L105.40848214285714,152.66108419123321L107.39732142857143,152.66108418955233L109.38616071428571,152.66108418854378L111.375,152.6610841879387L113.36383928571429,152.66108418757545L115.35267857142858,152.66108418735752L117.34151785714286,152.66108418722678L119.33035714285714,152.66108418714845L121.31919642857143,152.66108418710147L123.30803571428571,152.6610841870733L125.296875,152.6610841870564L127.28571428571428,152.66108418704619L129.27455357142858,152.66108418703996L131.26339285714286,152.66108418703644L133.25223214285714,152.66108418703408L135.24107142857142,152.66108418703288L137.22991071428572,152.66108418703212L139.21875,152.66108418703163L141.20758928571428,152.66108418703124L143.19642857142856,152.66108418703104L145.18526785714286,152.66108418703104L147.17410714285714,152.66108418703104L149.16294642857142,152.66108418703084L151.1517857142857,152.66108418703092L153.140625,152.66108418703092L155.12946428571428,152.66108418703084L157.11830357142858,152.66108418703072L159.10714285714286,152.66108418703084L161.09598214285717,152.66108418703092L163.08482142857144,152.66108418703092L165.07366071428572,152.66108418703104L167.0625,152.66108418703104L169.05133928571428,152.66108418703104L171.04017857142858,152.66108418703104L173.02901785714286,152.66108418703104" style="fill: none;" fill="none"></path></g></g></g></g><g opacity="0.2"><g><g><g><path stroke="rgb(0, 119, 187)" stroke-width="2px" d="M29.832589285714285,354.0391680121421L31.82142857142857,31.750287365913465L33.810267857142854,108.9988681197167L35.79910714285714,90.80625171661383L37.78794642857142,93.04538841247565L39.776785714285715,268.1141435623169L41.765625,97.80344839096075L43.754464285714285,101.72183210849768L45.74330357142857,110.67816789150244L47.732142857142854,88.14732964038856L49.720982142857146,44.0652226924897L51.70982142857143,180.50976659059526L53.698660714285715,19.855137419700718L55.6875,285.4670837044716L57.67633928571429,140.6259881973267L59.66517857142857,120.61412597894675L61.654017857142854,183.86841888427736L63.64285714285714,151.54156858921056L65.63169642857143,122.9931559681893L67.62053571428571,126.07191617488867L69.609375,111.37789810895926L71.59821428571428,26.01265783309946L73.58705357142857,102.28161628246313L75.57589285714285,30.35082693099983L77.56473214285714,154.76022208929066L79.55357142857143,219.1340833425522L81.54241071428572,27.83190364837656L83.53125,152.3811921000481L85.52008928571429,73.7332564115525L87.50892857142857,143.42485631704335L89.49776785714286,106.20000000000006L91.48660714285714,124.67250849008566L93.47544642857142,70.37455136775978L95.46428571428571,246.14308948516847L97.453125,106.20000000000006L99.44196428571429,92.62549753189093L101.43080357142857,109.97843767404562L103.41964285714286,76.67196507453926L105.40848214285714,44.485113573074415L107.39732142857143,78.63120968341835L109.38616071428571,122.71326388120657L111.375,143.5648023605347L113.36383928571429,154.90016813278203L115.35267857142858,165.3959103941918L117.34151785714286,106.20000000000006L119.33035714285714,135.8679282188416L121.31919642857143,106.20000000000006L123.30803571428571,231.86885679960253L125.296875,148.60275442600255L127.28571428571428,114.1767662286759L129.27455357142858,126.3518082618714L131.26339285714286,159.23844273090367L133.25223214285714,157.9789283394814L135.24107142857142,196.46329904794695L137.22991071428572,104.38075418472296L139.21875,106.20000000000006L141.20758928571428,160.49790437221532L143.19642857142856,123.55294014215475L145.18526785714286,113.75692809820181L147.17410714285714,81.84991593360908L149.16294642857142,47.70381982326515L151.1517857142857,91.08614380359656L153.140625,105.36032373905188L155.12946428571428,124.25267035961157L157.11830357142858,104.66064627170569L159.10714285714286,157.27919812202458L161.09598214285717,135.8679282188416L163.08482142857144,115.71611995697027L165.07366071428572,101.72183210849768L167.0625,100.32237167358404L169.05133928571428,119.63455642461783L171.04017857142858,106.20000000000006L173.02901785714286,39.866946887970045L175.01785714285714,74.71282596588142L177.00669642857142,222.3527368426323L178.99553571428572,171.13359267711644L180.984375,88.84700710773474L182.97321428571428,126.91159243583685L184.96205357142856,46.444358181953504L186.95089285714283,169.59418619871144L188.93973214285714,106.20000000000006L190.92857142857142,58.19950933456428L192.91741071428572,69.81476719379432L194.90625,-10.232681679725552L196.8950892857143,109.27876020669943L198.88392857142858,112.3575204133988L200.87276785714286,118.23509598970419L202.86160714285714,227.11079682111742L204.85044642857144,106.20000000000006L206.83928571428572,106.20000000000006L208.828125,253.56007153987886L210.81696428571428,83.52926845550544L212.80580357142856,152.94097627401356L214.79464285714286,122.85320992469794L216.78348214285714,106.20000000000006L218.77232142857142,-32.34362905025473L220.7611607142857,79.61077923774727L222.75,-65.23026351928698L224.73883928571428,215.0757008314133L226.72767857142858,72.05390388965614L228.71651785714286,138.66679633855824L230.70535714285717,152.66108418703084L232.69419642857144,202.76071275472643L234.68303571428572,24.613197398185825L236.671875,82.26970131397255L238.66071428571428,51.76209683418281L240.64955357142858,-31.643951582908535L242.63839285714286,14.677186560630894L244.62723214285714,112.21757436990744L246.61607142857142,128.59089220762257L248.60491071428572,104.5206474781037L250.59375,138.38690425157552L252.58258928571428,109.97843767404562L254.57142857142856,86.60797591209419L256.56026785714283,112.21757436990744L258.54910714285717,177.15111429691316L260.53794642857144,46.16446609497078" style="fill: none;" fill="none"></path></g><g><path stroke="rgb(255, 112, 67)" stroke-width="2px" d="M19.888392857142858,189.04631699323656L21.877232142857142,152.66108418703084L23.866071428571427,152.66108418703084L25.854910714285715,152.66108418703084L27.84375,152.66108418703084L29.832589285714285,152.66108418703084L31.82142857142857,152.66108418703084L33.810267857142854,152.66108418703084L35.79910714285714,152.66108418703084L37.78794642857142,152.66108418703084L39.776785714285715,152.66108418703084L41.765625,152.66108418703084L43.754464285714285,152.66108418703084L45.74330357142857,152.66108418703084L47.732142857142854,152.66108418703084L49.720982142857146,152.66108418703084L51.70982142857143,152.66108418703084L53.698660714285715,152.66108418703084L55.6875,152.66108418703084L57.67633928571429,152.66108418703084L59.66517857142857,152.66108418703084L61.654017857142854,152.66108418703084L63.64285714285714,152.66108418703084L65.63169642857143,152.66108418703084L67.62053571428571,152.66108418703084L69.609375,152.66108418703084L71.59821428571428,152.66108418703084L73.58705357142857,152.66108418703084L75.57589285714285,152.66108418703084L77.56473214285714,152.66108418703084L79.55357142857143,152.66108418703084L81.54241071428572,152.66108418703084L83.53125,152.66108418703084L85.52008928571429,152.66108418703084L87.50892857142857,152.66108418703084L89.49776785714286,152.66108418703084L91.48660714285714,152.66108418703084L93.47544642857142,152.66108418703084L95.46428571428571,152.66108418703084L97.453125,152.66108418703084L99.44196428571429,152.66108418703084L101.43080357142857,152.66108418703084L103.41964285714286,152.66108418703084L105.40848214285714,152.66108418703084L107.39732142857143,152.66108418703084L109.38616071428571,152.66108418703084L111.375,152.66108418703084L113.36383928571429,152.66108418703084L115.35267857142858,152.66108418703084L117.34151785714286,152.66108418703084L119.33035714285714,152.66108418703084L121.31919642857143,152.66108418703084L123.30803571428571,152.66108418703084L125.296875,152.66108418703084L127.28571428571428,152.66108418703084L129.27455357142858,152.66108418703084L131.26339285714286,152.66108418703084L133.25223214285714,152.66108418703084L135.24107142857142,152.66108418703084L137.22991071428572,152.66108418703084L139.21875,152.66108418703084L141.20758928571428,152.66108418703084L143.19642857142856,152.66108418703084L145.18526785714286,152.66108418703084L147.17410714285714,152.66108418703084L149.16294642857142,152.66108418703084L151.1517857142857,152.66108418703084L153.140625,152.66108418703084L155.12946428571428,152.66108418703084L157.11830357142858,152.66108418703084L159.10714285714286,152.66108418703084L161.09598214285717,152.66108418703084L163.08482142857144,152.66108418703084L165.07366071428572,152.66108418703084L167.0625,152.66108418703084L169.05133928571428,152.66108418703084L171.04017857142858,152.66108418703084L173.02901785714286,152.66108418703084" style="fill: none;" fill="none"></path></g></g></g></g></g></g><g transform="translate(51, 177)" clip-path="url(#clip_1)"><clipPath id="clip_1"><rect width="278" height="23"></rect></clipPath><g><g><line x1="0" y1="0" x2="0" y2="5" style="visibility: inherit;" fill="rgb(0, 0, 0)" stroke="rgb(204, 204, 204)" stroke-width="1px"></line><line x1="19.888392857142858" y1="0" x2="19.888392857142858" y2="5" style="visibility: inherit;" fill="rgb(0, 0, 0)" stroke="rgb(204, 204, 204)" stroke-width="1px"></line><line x1="39.776785714285715" y1="0" x2="39.776785714285715" y2="5" style="visibility: inherit;" fill="rgb(0, 0, 0)" stroke="rgb(204, 204, 204)" stroke-width="1px"></line><line x1="59.66517857142857" y1="0" x2="59.66517857142857" y2="5" style="visibility: inherit;" fill="rgb(0, 0, 0)" stroke="rgb(204, 204, 204)" stroke-width="1px"></line><line x1="79.55357142857143" y1="0" x2="79.55357142857143" y2="5" style="visibility: inherit;" fill="rgb(0, 0, 0)" stroke="rgb(204, 204, 204)" stroke-width="1px"></line><line x1="99.44196428571429" y1="0" x2="99.44196428571429" y2="5" style="visibility: inherit;" fill="rgb(0, 0, 0)" stroke="rgb(204, 204, 204)" stroke-width="1px"></line><line x1="119.33035714285714" y1="0" x2="119.33035714285714" y2="5" style="visibility: inherit;" fill="rgb(0, 0, 0)" stroke="rgb(204, 204, 204)" stroke-width="1px"></line><line x1="139.21875" y1="0" x2="139.21875" y2="5" style="visibility: inherit;" fill="rgb(0, 0, 0)" stroke="rgb(204, 204, 204)" stroke-width="1px"></line><line x1="159.10714285714286" y1="0" x2="159.10714285714286" y2="5" style="visibility: inherit;" fill="rgb(0, 0, 0)" stroke="rgb(204, 204, 204)" stroke-width="1px"></line><line x1="178.99553571428572" y1="0" x2="178.99553571428572" y2="5" style="visibility: inherit;" fill="rgb(0, 0, 0)" stroke="rgb(204, 204, 204)" stroke-width="1px"></line><line x1="198.88392857142858" y1="0" x2="198.88392857142858" y2="5" style="visibility: inherit;" fill="rgb(0, 0, 0)" stroke="rgb(204, 204, 204)" stroke-width="1px"></line><line x1="218.77232142857142" y1="0" x2="218.77232142857142" y2="5" style="visibility: inherit;" fill="rgb(0, 0, 0)" stroke="rgb(204, 204, 204)" stroke-width="1px"></line><line x1="238.66071428571428" y1="0" x2="238.66071428571428" y2="5" style="visibility: inherit;" fill="rgb(0, 0, 0)" stroke="rgb(204, 204, 204)" stroke-width="1px"></line><line x1="258.54910714285717" y1="0" x2="258.54910714285717" y2="5" style="visibility: inherit;" fill="rgb(0, 0, 0)" stroke="rgb(204, 204, 204)" stroke-width="1px"></line><line x1="278.4375" y1="0" x2="278.4375" y2="5" style="visibility: inherit;" fill="rgb(0, 0, 0)" stroke="rgb(204, 204, 204)" stroke-width="1px"></line></g><g transform="translate(0, 8)"><text x="0" y="0" dx="0em" dy="0.95em" style="text-anchor: middle; visibility: hidden; font-family: Roboto, sans-serif; font-size: 12px; font-weight: 200;" fill="rgb(33, 33, 33)" stroke="none" stroke-width="1px">-10</text><text x="19.888392857142858" y="0" dx="0em" dy="0.95em" style="text-anchor: middle; visibility: inherit; font-family: Roboto, sans-serif; font-size: 12px; font-weight: 200;" fill="rgb(33, 33, 33)" stroke="none" stroke-width="1px">0</text><text x="39.776785714285715" y="0" dx="0em" dy="0.95em" style="text-anchor: middle; visibility: hidden; font-family: Roboto, sans-serif; font-size: 12px; font-weight: 200;" fill="rgb(33, 33, 33)" stroke="none" stroke-width="1px">10</text><text x="59.66517857142857" y="0" dx="0em" dy="0.95em" style="text-anchor: middle; visibility: inherit; font-family: Roboto, sans-serif; font-size: 12px; font-weight: 200;" fill="rgb(33, 33, 33)" stroke="none" stroke-width="1px">20</text><text x="79.55357142857143" y="0" dx="0em" dy="0.95em" style="text-anchor: middle; visibility: hidden; font-family: Roboto, sans-serif; font-size: 12px; font-weight: 200;" fill="rgb(33, 33, 33)" stroke="none" stroke-width="1px">30</text><text x="99.44196428571429" y="0" dx="0em" dy="0.95em" style="text-anchor: middle; visibility: inherit; font-family: Roboto, sans-serif; font-size: 12px; font-weight: 200;" fill="rgb(33, 33, 33)" stroke="none" stroke-width="1px">40</text><text x="119.33035714285714" y="0" dx="0em" dy="0.95em" style="text-anchor: middle; visibility: hidden; font-family: Roboto, sans-serif; font-size: 12px; font-weight: 200;" fill="rgb(33, 33, 33)" stroke="none" stroke-width="1px">50</text><text x="139.21875" y="0" dx="0em" dy="0.95em" style="text-anchor: middle; visibility: inherit; font-family: Roboto, sans-serif; font-size: 12px; font-weight: 200;" fill="rgb(33, 33, 33)" stroke="none" stroke-width="1px">60</text><text x="159.10714285714286" y="0" dx="0em" dy="0.95em" style="text-anchor: middle; visibility: hidden; font-family: Roboto, sans-serif; font-size: 12px; font-weight: 200;" fill="rgb(33, 33, 33)" stroke="none" stroke-width="1px">70</text><text x="178.99553571428572" y="0" dx="0em" dy="0.95em" style="text-anchor: middle; visibility: inherit; font-family: Roboto, sans-serif; font-size: 12px; font-weight: 200;" fill="rgb(33, 33, 33)" stroke="none" stroke-width="1px">80</text><text x="198.88392857142858" y="0" dx="0em" dy="0.95em" style="text-anchor: middle; visibility: hidden; font-family: Roboto, sans-serif; font-size: 12px; font-weight: 200;" fill="rgb(33, 33, 33)" stroke="none" stroke-width="1px">90</text><text x="218.77232142857142" y="0" dx="0em" dy="0.95em" style="text-anchor: middle; visibility: inherit; font-family: Roboto, sans-serif; font-size: 12px; font-weight: 200;" fill="rgb(33, 33, 33)" stroke="none" stroke-width="1px">100</text><text x="238.66071428571428" y="0" dx="0em" dy="0.95em" style="text-anchor: middle; visibility: hidden; font-family: Roboto, sans-serif; font-size: 12px; font-weight: 200;" fill="rgb(33, 33, 33)" stroke="none" stroke-width="1px">110</text><text x="258.54910714285717" y="0" dx="0em" dy="0.95em" style="text-anchor: middle; visibility: inherit; font-family: Roboto, sans-serif; font-size: 12px; font-weight: 200;" fill="rgb(33, 33, 33)" stroke="none" stroke-width="1px">120</text><text x="278.4375" y="0" dx="0em" dy="0.95em" style="text-anchor: middle; visibility: hidden; font-family: Roboto, sans-serif; font-size: 12px; font-weight: 200;" fill="rgb(33, 33, 33)" stroke="none" stroke-width="1px">130</text></g><line x1="0" y1="0" x2="278.4375" y2="0" fill="rgb(0, 0, 0)" stroke="rgb(204, 204, 204)" stroke-width="1px"></line></g></g></g></g></svg>